<svg width="120" height="120" viewBox="0 0 120 120" fill="none" xmlns="http://www.w3.org/2000/svg">
<path d="M36.5694 92.0196H71.2587C71.268 92.0196 71.2772 92.0196 71.287 92.0191L71.8908 91.9966C76.1649 91.9685 79.6422 88.4335 79.6422 84.1174L79.6417 47.8343H90.5134C90.9454 47.8343 91.2956 47.4816 91.2956 47.0466V35.8274C91.2956 32.0715 88.27 29.016 84.55 29.016H84.4475H84.4469H84.4458L41.1942 29.0385C36.9196 29.0665 33.4429 32.6016 33.4429 36.9177V76.4339L29.5217 76.4344C29.0897 76.4344 28.7395 76.7871 28.7395 77.2222V84.1126C28.7395 88.4722 32.2521 92.0193 36.5699 92.0193L36.5694 92.0196ZM89.7308 35.8273V46.2594H79.6406V35.4307C79.6406 32.7625 81.7957 30.5916 84.4449 30.591H84.5496C87.4066 30.591 89.7308 32.9406 89.7308 35.8273ZM35.0055 36.9178C35.0055 33.464 37.7856 30.636 41.1986 30.6135L80.2765 30.5932C78.932 31.7704 78.0773 33.5003 78.0773 35.4306V84.1174C78.0773 87.5712 75.2972 90.3992 71.857 90.4222L71.251 90.4442C67.7994 90.4404 64.9926 87.6013 64.9926 84.1125V77.2221C64.9926 76.7871 64.6425 76.4344 64.2105 76.4344L35.006 76.4349L35.0055 36.9178ZM30.3021 78.009H63.4274V84.1117C63.4274 86.6991 64.6645 89.0004 66.573 90.444H36.5685C33.1131 90.444 30.3018 87.6034 30.3018 84.1117L30.3021 78.009Z" fill="#5FC6C1"/>
<path d="M42.4592 69.437H40.2136C39.7816 69.437 39.4314 69.7896 39.4314 70.2247C39.4314 70.6598 39.7816 71.0125 40.2136 71.0125H42.4592C42.8912 71.0125 43.2413 70.6598 43.2413 70.2247C43.2413 69.7896 42.8912 69.437 42.4592 69.437Z" fill="#269E96"/>
<path d="M48.589 69.437H46.3435C45.9115 69.437 45.5613 69.7896 45.5613 70.2247C45.5613 70.6598 45.9115 71.0125 46.3435 71.0125H48.589C49.021 71.0125 49.3712 70.6598 49.3712 70.2247C49.3712 69.7896 49.021 69.437 48.589 69.437Z" fill="#269E96"/>
<path d="M54.7204 69.437H52.4748C52.0428 69.437 51.6926 69.7896 51.6926 70.2247C51.6926 70.6598 52.0428 71.0125 52.4748 71.0125H54.7204C55.1524 71.0125 55.5026 70.6598 55.5026 70.2247C55.502 69.7896 55.1518 69.437 54.7204 69.437Z" fill="#269E96"/>
<path d="M60.8503 69.437H58.6047C58.1727 69.437 57.8225 69.7896 57.8225 70.2247C57.8225 70.6598 58.1727 71.0125 58.6047 71.0125H60.8503C61.2823 71.0125 61.6324 70.6598 61.6324 70.2247C61.6324 69.7896 61.2823 69.437 60.8503 69.437Z" fill="#269E96"/>
<path d="M66.9816 71.012C67.4136 71.012 67.7638 70.6593 67.7638 70.2242C67.7638 69.7891 67.4136 69.4365 66.9816 69.4365H64.736C64.304 69.4365 63.9539 69.7891 63.9539 70.2242C63.9539 70.6593 64.304 71.012 64.736 71.012H66.9816Z" fill="#269E96"/>
<path d="M70.8664 71.012H73.112C73.544 71.012 73.8942 70.6593 73.8942 70.2242C73.8942 69.7891 73.544 69.4365 73.112 69.4365H70.8664C70.4344 69.4365 70.0842 69.7891 70.0842 70.2242C70.0842 70.6593 70.4344 71.012 70.8664 71.012Z" fill="#269E96"/>
<path d="M42.4592 62.4391H40.2136C39.7816 62.4391 39.4314 62.7918 39.4314 63.2268C39.4314 63.6619 39.7816 64.0146 40.2136 64.0146H42.4592C42.8912 64.0146 43.2413 63.6619 43.2413 63.2268C43.2413 62.7918 42.8912 62.4391 42.4592 62.4391Z" fill="#269E96"/>
<path d="M48.589 62.4391H46.3435C45.9115 62.4391 45.5613 62.7918 45.5613 63.2268C45.5613 63.6619 45.9115 64.0146 46.3435 64.0146H48.589C49.021 64.0146 49.3712 63.6619 49.3712 63.2268C49.3712 62.7918 49.021 62.4391 48.589 62.4391Z" fill="#269E96"/>
<path d="M54.7204 62.4391H52.4748C52.0428 62.4391 51.6926 62.7918 51.6926 63.2268C51.6926 63.6619 52.0428 64.0146 52.4748 64.0146H54.7204C55.1524 64.0146 55.5026 63.6619 55.5026 63.2268C55.502 62.7918 55.1518 62.4391 54.7204 62.4391Z" fill="#269E96"/>
<path d="M60.8503 62.4391H58.6047C58.1727 62.4391 57.8225 62.7918 57.8225 63.2268C57.8225 63.6619 58.1727 64.0146 58.6047 64.0146H60.8503C61.2823 64.0146 61.6324 63.6619 61.6324 63.2268C61.6324 62.7918 61.2823 62.4391 60.8503 62.4391Z" fill="#269E96"/>
<path d="M64.7363 64.0142H66.9819C67.4139 64.0142 67.764 63.6615 67.764 63.2264C67.764 62.7913 67.4139 62.4387 66.9819 62.4387H64.7363C64.3043 62.4387 63.9541 62.7913 63.9541 63.2264C63.9541 63.6615 64.3043 64.0142 64.7363 64.0142Z" fill="#269E96"/>
<path d="M70.8664 64.0142H73.112C73.544 64.0142 73.8942 63.6615 73.8942 63.2264C73.8942 62.7913 73.544 62.4387 73.112 62.4387H70.8664C70.4344 62.4387 70.0842 62.7913 70.0842 63.2264C70.0842 63.6615 70.4344 64.0142 70.8664 64.0142Z" fill="#269E96"/>
<path d="M42.4592 55.4412H40.2136C39.7816 55.4412 39.4314 55.7939 39.4314 56.229C39.4314 56.6641 39.7816 57.0168 40.2136 57.0168H42.4592C42.8912 57.0168 43.2413 56.6641 43.2413 56.229C43.2413 55.7939 42.8912 55.4412 42.4592 55.4412Z" fill="#269E96"/>
<path d="M48.589 55.4412H46.3435C45.9115 55.4412 45.5613 55.7939 45.5613 56.229C45.5613 56.6641 45.9115 57.0168 46.3435 57.0168H48.589C49.021 57.0168 49.3712 56.6641 49.3712 56.229C49.3712 55.7939 49.021 55.4412 48.589 55.4412Z" fill="#269E96"/>
<path d="M54.7204 55.4412H52.4748C52.0428 55.4412 51.6926 55.7939 51.6926 56.229C51.6926 56.6641 52.0428 57.0168 52.4748 57.0168H54.7204C55.1524 57.0168 55.5026 56.6641 55.5026 56.229C55.502 55.7939 55.1518 55.4412 54.7204 55.4412Z" fill="#269E96"/>
<path d="M60.8503 55.4412H58.6047C58.1727 55.4412 57.8225 55.7939 57.8225 56.229C57.8225 56.6641 58.1727 57.0168 58.6047 57.0168H60.8503C61.2823 57.0168 61.6324 56.6641 61.6324 56.229C61.6324 55.7939 61.2823 55.4412 60.8503 55.4412Z" fill="#269E96"/>
<path d="M64.7363 57.0163H66.9819C67.4139 57.0163 67.764 56.6636 67.764 56.2286C67.764 55.7935 67.4139 55.4408 66.9819 55.4408H64.7363C64.3043 55.4408 63.9541 55.7935 63.9541 56.2286C63.9541 56.6642 64.3043 57.0163 64.7363 57.0163Z" fill="#269E96"/>
<path d="M70.8664 57.0163H73.112C73.544 57.0163 73.8942 56.6636 73.8942 56.2286C73.8942 55.7935 73.544 55.4408 73.112 55.4408H70.8664C70.4344 55.4408 70.0842 55.7935 70.0842 56.2286C70.0842 56.6642 70.4344 57.0163 70.8664 57.0163Z" fill="#269E96"/>
<path d="M42.4592 48.4434H40.2136C39.7816 48.4434 39.4314 48.796 39.4314 49.2311C39.4314 49.6662 39.7816 50.0189 40.2136 50.0189H42.4592C42.8912 50.0189 43.2413 49.6662 43.2413 49.2311C43.2413 48.796 42.8912 48.4434 42.4592 48.4434Z" fill="#269E96"/>
<path d="M48.589 48.4434H46.3435C45.9115 48.4434 45.5613 48.796 45.5613 49.2311C45.5613 49.6662 45.9115 50.0189 46.3435 50.0189H48.589C49.021 50.0189 49.3712 49.6662 49.3712 49.2311C49.3712 48.796 49.021 48.4434 48.589 48.4434Z" fill="#269E96"/>
<path d="M54.7204 48.4434H52.4748C52.0428 48.4434 51.6926 48.796 51.6926 49.2311C51.6926 49.6662 52.0428 50.0189 52.4748 50.0189H54.7204C55.1524 50.0189 55.5026 49.6662 55.5026 49.2311C55.502 48.796 55.1518 48.4434 54.7204 48.4434Z" fill="#269E96"/>
<path d="M60.8503 48.4434H58.6047C58.1727 48.4434 57.8225 48.796 57.8225 49.2311C57.8225 49.6662 58.1727 50.0189 58.6047 50.0189H60.8503C61.2823 50.0189 61.6324 49.6662 61.6324 49.2311C61.6324 48.796 61.2823 48.4434 60.8503 48.4434Z" fill="#269E96"/>
<path d="M64.7363 50.0199H66.9819C67.4139 50.0199 67.764 49.6672 67.764 49.2321C67.764 48.797 67.4139 48.4443 66.9819 48.4443H64.7363C64.3043 48.4443 63.9541 48.797 63.9541 49.2321C63.9541 49.6672 64.3043 50.0199 64.7363 50.0199Z" fill="#269E96"/>
<path d="M70.8664 50.0199H73.112C73.544 50.0199 73.8942 49.6672 73.8942 49.2321C73.8942 48.797 73.544 48.4443 73.112 48.4443H70.8664C70.4344 48.4443 70.0842 48.797 70.0842 49.2321C70.0842 49.6672 70.4344 50.0199 70.8664 50.0199Z" fill="#269E96"/>
<path d="M42.4592 41.447H40.2136C39.7816 41.447 39.4314 41.7997 39.4314 42.2348C39.4314 42.6699 39.7816 43.0225 40.2136 43.0225H42.4592C42.8912 43.0225 43.2413 42.6699 43.2413 42.2348C43.2413 41.7997 42.8912 41.447 42.4592 41.447Z" fill="#269E96"/>
<path d="M48.589 41.447H46.3435C45.9115 41.447 45.5613 41.7997 45.5613 42.2348C45.5613 42.6699 45.9115 43.0225 46.3435 43.0225H48.589C49.021 43.0225 49.3712 42.6699 49.3712 42.2348C49.3712 41.7997 49.021 41.447 48.589 41.447Z" fill="#269E96"/>
<path d="M54.7204 41.447H52.4748C52.0428 41.447 51.6926 41.7997 51.6926 42.2348C51.6926 42.6699 52.0428 43.0225 52.4748 43.0225H54.7204C55.1524 43.0225 55.5026 42.6699 55.5026 42.2348C55.502 41.7997 55.1518 41.447 54.7204 41.447Z" fill="#269E96"/>
<path d="M60.8503 41.447H58.6047C58.1727 41.447 57.8225 41.7997 57.8225 42.2348C57.8225 42.6699 58.1727 43.0225 58.6047 43.0225H60.8503C61.2823 43.0225 61.6324 42.6699 61.6324 42.2348C61.6324 41.7997 61.2823 41.447 60.8503 41.447Z" fill="#269E96"/>
<path d="M64.7363 43.0221H66.9819C67.4139 43.0221 67.764 42.6694 67.764 42.2343C67.764 41.7992 67.4139 41.4465 66.9819 41.4465H64.7363C64.3043 41.4465 63.9541 41.7992 63.9541 42.2343C63.9541 42.6694 64.3043 43.0221 64.7363 43.0221Z" fill="#269E96"/>
<path d="M70.8664 43.0221H73.112C73.544 43.0221 73.8942 42.6694 73.8942 42.2343C73.8942 41.7992 73.544 41.4465 73.112 41.4465H70.8664C70.4344 41.4465 70.0842 41.7992 70.0842 42.2343C70.0842 42.6694 70.4344 43.0221 70.8664 43.0221Z" fill="#269E96"/>
<path fill-rule="evenodd" clip-rule="evenodd" d="M119.715 65.8833L116.729 65.5927C116.908 63.7535 117 61.8879 117 60C117 58.1121 116.908 56.2465 116.729 54.4073L119.715 54.1167C119.904 56.0523 120 58.0149 120 60C120 61.9851 119.904 63.9477 119.715 65.8833ZM117.431 42.577L114.56 43.4469C113.468 39.8437 112.029 36.391 110.281 33.1276L112.926 31.7112C114.766 35.1468 116.282 38.7824 117.431 42.577ZM106.382 21.9358L104.064 23.8403C101.694 20.9549 99.0451 18.3063 96.1597 15.9356L98.0642 13.6176C101.101 16.1123 103.888 18.8994 106.382 21.9358ZM88.2888 7.07406L86.8724 9.71861C83.609 7.97071 80.1563 6.53159 76.5531 5.43992L77.423 2.5688C81.2176 3.71845 84.8532 5.23388 88.2888 7.07406ZM65.8833 0.28478L65.5927 3.27067C63.7535 3.09168 61.8879 3 60 3C58.1121 3 56.2465 3.09168 54.4073 3.27067L54.1167 0.28478C56.0523 0.096402 58.0149 0 60 0C61.9851 0 63.9477 0.0964021 65.8833 0.28478ZM42.577 2.5688L43.4469 5.43992C39.8437 6.53159 36.391 7.97071 33.1276 9.71861L31.7112 7.07406C35.1468 5.23388 38.7824 3.71845 42.577 2.5688ZM21.9358 13.6176L23.8403 15.9356C20.9549 18.3063 18.3063 20.9549 15.9356 23.8403L13.6176 21.9358C16.1123 18.8994 18.8994 16.1123 21.9358 13.6176ZM7.07407 31.7112L9.71861 33.1276C7.97071 36.391 6.53159 39.8437 5.43992 43.4469L2.5688 42.577C3.71845 38.7824 5.23388 35.1468 7.07407 31.7112ZM0.28478 54.1167C0.0964022 56.0523 0 58.0149 0 60C0 61.9851 0.0964019 63.9477 0.28478 65.8833L3.27067 65.5927C3.09168 63.7535 3 61.8879 3 60C3 58.1121 3.09168 56.2465 3.27067 54.4073L0.28478 54.1167ZM2.5688 77.423L5.43992 76.5531C6.53159 80.1563 7.97071 83.609 9.71861 86.8724L7.07406 88.2888C5.23388 84.8532 3.71845 81.2176 2.5688 77.423ZM13.6176 98.0642C16.1123 101.101 18.8994 103.888 21.9358 106.382L23.8403 104.064C20.9549 101.694 18.3063 99.0451 15.9356 96.1597L13.6176 98.0642ZM31.7112 112.926L33.1276 110.281C36.391 112.029 39.8437 113.468 43.4469 114.56L42.577 117.431C38.7824 116.282 35.1468 114.766 31.7112 112.926ZM54.1167 119.715L54.4073 116.729C56.2465 116.908 58.1121 117 60 117C61.8879 117 63.7535 116.908 65.5927 116.729L65.8833 119.715C63.9477 119.904 61.9851 120 60 120C58.0149 120 56.0523 119.904 54.1167 119.715ZM77.423 117.431L76.5531 114.56C80.1563 113.468 83.609 112.029 86.8724 110.281L88.2888 112.926C84.8532 114.766 81.2176 116.282 77.423 117.431ZM98.0642 106.382C101.101 103.888 103.888 101.101 106.382 98.0642L104.064 96.1597C101.694 99.0451 99.0451 101.694 96.1597 104.064L98.0642 106.382ZM112.926 88.2888L110.281 86.8724C112.029 83.609 113.468 80.1563 114.56 76.5531L117.431 77.423C116.282 81.2176 114.766 84.8532 112.926 88.2888Z" fill="#269E96"/>
</svg>
