<svg width="120" height="120" viewBox="0 0 120 120" fill="none" xmlns="http://www.w3.org/2000/svg">
<path fill-rule="evenodd" clip-rule="evenodd" d="M119.715 65.8833L116.729 65.5927C116.908 63.7535 117 61.8879 117 60C117 58.1121 116.908 56.2465 116.729 54.4073L119.715 54.1167C119.904 56.0523 120 58.0149 120 60C120 61.9851 119.904 63.9477 119.715 65.8833ZM117.431 42.577L114.56 43.4469C113.468 39.8437 112.029 36.391 110.281 33.1276L112.926 31.7112C114.766 35.1468 116.282 38.7824 117.431 42.577ZM106.382 21.9358L104.064 23.8403C101.694 20.9549 99.0451 18.3063 96.1597 15.9356L98.0642 13.6176C101.101 16.1123 103.888 18.8994 106.382 21.9358ZM88.2888 7.07406L86.8724 9.71861C83.609 7.97071 80.1563 6.53159 76.5531 5.43992L77.423 2.5688C81.2176 3.71845 84.8532 5.23388 88.2888 7.07406ZM65.8833 0.28478L65.5927 3.27067C63.7535 3.09168 61.8879 3 60 3C58.1121 3 56.2465 3.09168 54.4073 3.27067L54.1167 0.28478C56.0523 0.096402 58.0149 0 60 0C61.9851 0 63.9477 0.0964021 65.8833 0.28478ZM42.577 2.5688L43.4469 5.43992C39.8437 6.53159 36.391 7.97071 33.1276 9.71861L31.7112 7.07406C35.1468 5.23388 38.7824 3.71845 42.577 2.5688ZM21.9358 13.6176L23.8403 15.9356C20.9549 18.3063 18.3063 20.9549 15.9356 23.8403L13.6176 21.9358C16.1123 18.8994 18.8994 16.1123 21.9358 13.6176ZM7.07407 31.7112L9.71861 33.1276C7.97071 36.391 6.53159 39.8437 5.43992 43.4469L2.5688 42.577C3.71845 38.7824 5.23388 35.1468 7.07407 31.7112ZM0.28478 54.1167C0.0964022 56.0523 0 58.0149 0 60C0 61.9851 0.0964019 63.9477 0.28478 65.8833L3.27067 65.5927C3.09168 63.7535 3 61.8879 3 60C3 58.1121 3.09168 56.2465 3.27067 54.4073L0.28478 54.1167ZM2.5688 77.423L5.43992 76.5531C6.53159 80.1563 7.97071 83.609 9.71861 86.8724L7.07406 88.2888C5.23388 84.8532 3.71845 81.2176 2.5688 77.423ZM13.6176 98.0642C16.1123 101.101 18.8994 103.888 21.9358 106.382L23.8403 104.064C20.9549 101.694 18.3063 99.0451 15.9356 96.1597L13.6176 98.0642ZM31.7112 112.926L33.1276 110.281C36.391 112.029 39.8437 113.468 43.4469 114.56L42.577 117.431C38.7824 116.282 35.1468 114.766 31.7112 112.926ZM54.1167 119.715L54.4073 116.729C56.2465 116.908 58.1121 117 60 117C61.8879 117 63.7535 116.908 65.5927 116.729L65.8833 119.715C63.9477 119.904 61.9851 120 60 120C58.0149 120 56.0523 119.904 54.1167 119.715ZM77.423 117.431L76.5531 114.56C80.1563 113.468 83.609 112.029 86.8724 110.281L88.2888 112.926C84.8532 114.766 81.2176 116.282 77.423 117.431ZM98.0642 106.382C101.101 103.888 103.888 101.101 106.382 98.0642L104.064 96.1597C101.694 99.0451 99.0451 101.694 96.1597 104.064L98.0642 106.382ZM112.926 88.2888L110.281 86.8724C112.029 83.609 113.468 80.1563 114.56 76.5531L117.431 77.423C116.282 81.2176 114.766 84.8532 112.926 88.2888Z" fill="#269E96"/>
<path d="M91.6829 45.2562L83.3269 53.5812C82.4136 53.0056 81.3364 52.6681 80.1783 52.6681C78.5355 52.6681 77.0476 53.3405 75.9745 54.421L69.2698 50.2674C69.4799 49.6635 69.5996 49.0183 69.5996 48.3448C69.5996 45.0959 66.9464 42.4519 63.6848 42.4519C60.4233 42.4519 57.77 45.0954 57.77 48.3448C57.77 50.2804 58.7159 51.9951 60.1659 53.0698L54.5347 65.8096C54.1697 65.739 53.7931 65.6992 53.4076 65.6992C52.103 65.6992 50.8998 66.1278 49.9202 66.8431L43.5731 61.3446C44.0216 60.5147 44.2769 59.5666 44.2769 58.5598C44.2769 55.3109 41.6236 52.6669 38.3621 52.6669C35.1005 52.6669 32.4472 55.3104 32.4472 58.5598C32.4472 59.7136 32.787 60.7868 33.3637 61.6968L26.5345 68.5008C26.024 69.0094 26.024 69.8345 26.5345 70.3432C26.7897 70.5975 27.1248 70.7252 27.4588 70.7252C27.7934 70.7252 28.128 70.5975 28.3832 70.3432L35.2124 63.5392C36.1258 64.1148 37.2039 64.4528 38.3621 64.4528C39.6678 64.4528 40.8726 64.0237 41.8521 63.3063L48.1976 68.8043C47.748 69.6347 47.4922 70.5844 47.4922 71.5917C47.4922 74.8407 50.1455 77.4847 53.407 77.4847C56.6686 77.4847 59.3218 74.8412 59.3218 71.5917C59.3218 69.6557 58.3754 67.9398 56.9243 66.8651L62.5555 54.1263C62.9216 54.1969 63.2987 54.2367 63.6847 54.2367C65.3291 54.2367 66.8176 53.5633 67.8916 52.4807L74.5947 56.6333C74.3841 57.2376 74.2633 57.8844 74.2633 58.5594C74.2633 61.8084 76.9166 64.4524 80.1781 64.4524C83.4391 64.4524 86.093 61.8089 86.093 58.5594C86.093 57.4056 85.7532 56.3313 85.176 55.4214L93.5319 47.0964C94.0424 46.5877 94.0424 45.7631 93.5319 45.2539C93.0214 44.7474 92.1944 44.7476 91.6829 45.2562ZM38.3632 61.8492C36.5434 61.8492 35.0633 60.3746 35.0633 58.562C35.0633 56.7495 36.5434 55.2749 38.3632 55.2749C40.1824 55.2749 41.6625 56.7495 41.6625 58.562C41.6625 60.3746 40.1824 61.8492 38.3632 61.8492ZM53.4084 74.8815C51.5891 74.8815 50.109 73.4069 50.109 71.5944C50.109 69.7818 51.5891 68.3073 53.4084 68.3073C55.2276 68.3073 56.7077 69.7818 56.7077 71.5944C56.7077 73.4069 55.2276 74.8815 53.4084 74.8815ZM63.686 51.6336C61.8662 51.6336 60.3862 50.1591 60.3862 48.3465C60.3862 46.534 61.8662 45.0594 63.686 45.0594C65.5053 45.0594 66.9853 46.534 66.9853 48.3465C66.9853 50.1591 65.5053 51.6336 63.686 51.6336ZM80.1793 61.8493C78.36 61.8493 76.8799 60.3747 76.8799 58.5622C76.8799 56.7496 78.36 55.2751 80.1793 55.2751C81.0879 55.2751 81.9125 55.6434 82.5096 56.2373C82.5101 56.2379 82.5106 56.2384 82.5117 56.2384C83.1089 56.8333 83.4786 57.6554 83.4786 58.5606C83.4791 60.3748 81.9991 61.8493 80.1793 61.8493Z" fill="#5FC6C1"/>
</svg>
