<svg width="120" height="120" viewBox="0 0 120 120" fill="none" xmlns="http://www.w3.org/2000/svg">
<path fill-rule="evenodd" clip-rule="evenodd" d="M119.715 65.8833L116.729 65.5927C116.908 63.7535 117 61.8879 117 60C117 58.1121 116.908 56.2465 116.729 54.4073L119.715 54.1167C119.904 56.0523 120 58.0149 120 60C120 61.9851 119.904 63.9477 119.715 65.8833ZM117.431 42.577L114.56 43.4469C113.468 39.8437 112.029 36.391 110.281 33.1276L112.926 31.7112C114.766 35.1468 116.282 38.7824 117.431 42.577ZM106.382 21.9358L104.064 23.8403C101.694 20.9549 99.0451 18.3063 96.1597 15.9356L98.0642 13.6176C101.101 16.1123 103.888 18.8994 106.382 21.9358ZM88.2888 7.07406L86.8724 9.71861C83.609 7.97071 80.1563 6.53159 76.5531 5.43992L77.423 2.5688C81.2176 3.71845 84.8532 5.23388 88.2888 7.07406ZM65.8833 0.28478L65.5927 3.27067C63.7535 3.09168 61.8879 3 60 3C58.1121 3 56.2465 3.09168 54.4073 3.27067L54.1167 0.28478C56.0523 0.096402 58.0149 0 60 0C61.9851 0 63.9477 0.0964021 65.8833 0.28478ZM42.577 2.5688L43.4469 5.43992C39.8437 6.53159 36.391 7.97071 33.1276 9.71861L31.7112 7.07406C35.1468 5.23388 38.7824 3.71845 42.577 2.5688ZM21.9358 13.6176L23.8403 15.9356C20.9549 18.3063 18.3063 20.9549 15.9356 23.8403L13.6176 21.9358C16.1123 18.8994 18.8994 16.1123 21.9358 13.6176ZM7.07407 31.7112L9.71861 33.1276C7.97071 36.391 6.53159 39.8437 5.43992 43.4469L2.5688 42.577C3.71845 38.7824 5.23388 35.1468 7.07407 31.7112ZM0.28478 54.1167C0.0964022 56.0523 0 58.0149 0 60C0 61.9851 0.0964019 63.9477 0.28478 65.8833L3.27067 65.5927C3.09168 63.7535 3 61.8879 3 60C3 58.1121 3.09168 56.2465 3.27067 54.4073L0.28478 54.1167ZM2.5688 77.423L5.43992 76.5531C6.53159 80.1563 7.97071 83.609 9.71861 86.8724L7.07406 88.2888C5.23388 84.8532 3.71845 81.2176 2.5688 77.423ZM13.6176 98.0642C16.1123 101.101 18.8994 103.888 21.9358 106.382L23.8403 104.064C20.9549 101.694 18.3063 99.0451 15.9356 96.1597L13.6176 98.0642ZM31.7112 112.926L33.1276 110.281C36.391 112.029 39.8437 113.468 43.4469 114.56L42.577 117.431C38.7824 116.282 35.1468 114.766 31.7112 112.926ZM54.1167 119.715L54.4073 116.729C56.2465 116.908 58.1121 117 60 117C61.8879 117 63.7535 116.908 65.5927 116.729L65.8833 119.715C63.9477 119.904 61.9851 120 60 120C58.0149 120 56.0523 119.904 54.1167 119.715ZM77.423 117.431L76.5531 114.56C80.1563 113.468 83.609 112.029 86.8724 110.281L88.2888 112.926C84.8532 114.766 81.2176 116.282 77.423 117.431ZM98.0642 106.382C101.101 103.888 103.888 101.101 106.382 98.0642L104.064 96.1597C101.694 99.0451 99.0451 101.694 96.1597 104.064L98.0642 106.382ZM112.926 88.2888L110.281 86.8724C112.029 83.609 113.468 80.1563 114.56 76.5531L117.431 77.423C116.282 81.2176 114.766 84.8532 112.926 88.2888Z" fill="#269E96"/>
<path d="M83.8232 44.4802H79.4626V36.5371C79.4626 35.8658 78.9161 35.3214 78.2422 35.3214C77.5683 35.3214 77.0219 35.8658 77.0219 36.5371V44.4802H72.5637C71.8931 44.4888 71.3521 45.0278 71.3434 45.6959V74.8736C71.3434 75.545 71.8893 76.0893 72.5637 76.0893H76.9733V83.4484H76.9728C76.9728 84.1197 77.5192 84.6641 78.1931 84.6641C78.8676 84.6641 79.4135 84.1197 79.4135 83.4484V76.1214H83.8231C84.497 76.1214 85.0434 75.5776 85.0434 74.9057V45.728C85.0478 45.4012 84.9219 45.0865 84.6931 44.8525C84.4643 44.6181 84.151 44.4846 83.8231 44.4802L83.8232 44.4802ZM82.6028 73.6579H73.7842V46.9116H82.6034L82.6028 73.6579Z" fill="#5FC6C1"/>
<path d="M65.5668 48.0955H61.1572V36.5378C61.1572 35.8664 60.6107 35.322 59.9368 35.322C59.2629 35.322 58.7165 35.8664 58.7165 36.5378V48.0955H54.3069C53.633 48.0955 53.0865 48.6398 53.0865 49.3112V78.4889C53.0953 79.1565 53.6368 79.6959 54.3069 79.7046H58.7165V83.449C58.7165 84.1203 59.2629 84.6647 59.9368 84.6647C60.6107 84.6647 61.1572 84.1203 61.1572 83.449V79.7371H65.5668C66.2369 79.7285 66.7784 79.189 66.7871 78.5214V49.3437C66.7958 49.0153 66.6711 48.6979 66.4412 48.4628C66.2113 48.2278 65.8958 48.0955 65.5668 48.0955ZM64.3464 77.2732H55.5273V50.5269H64.3464V77.2732Z" fill="#5FC6C1"/>
<path d="M47.3089 45.032H42.8999V36.5381C42.8999 35.8668 42.3534 35.3224 41.6795 35.3224C41.0051 35.3224 40.4592 35.8668 40.4592 36.5381V45.032H36.0496C35.3757 45.032 34.8292 45.5764 34.8292 46.2478V75.4255C34.8379 76.0936 35.3789 76.6325 36.0496 76.6412H40.4102V83.4493C40.4102 84.1207 40.9566 84.6651 41.6306 84.6651C42.3045 84.6651 42.8509 84.1207 42.8509 83.4493V76.6412H47.2605C47.9306 76.6325 48.4721 76.0936 48.4808 75.4255V46.2478C48.4814 45.5949 47.9637 45.0581 47.3089 45.032ZM46.0885 74.2097H37.2699V47.4635H46.0891L46.0885 74.2097Z" fill="#5FC6C1"/>
</svg>
