<svg width="120" height="120" viewBox="0 0 120 120" fill="none" xmlns="http://www.w3.org/2000/svg">
<path fill-rule="evenodd" clip-rule="evenodd" d="M119.715 65.8833L116.729 65.5927C116.908 63.7535 117 61.8879 117 60C117 58.1121 116.908 56.2465 116.729 54.4073L119.715 54.1167C119.904 56.0523 120 58.0149 120 60C120 61.9851 119.904 63.9477 119.715 65.8833ZM117.431 42.577L114.56 43.4469C113.468 39.8437 112.029 36.391 110.281 33.1276L112.926 31.7112C114.766 35.1468 116.282 38.7824 117.431 42.577ZM106.382 21.9358L104.064 23.8403C101.694 20.9549 99.0451 18.3063 96.1597 15.9356L98.0642 13.6176C101.101 16.1123 103.888 18.8994 106.382 21.9358ZM88.2888 7.07406L86.8724 9.71861C83.609 7.97071 80.1563 6.53159 76.5531 5.43992L77.423 2.5688C81.2176 3.71845 84.8532 5.23388 88.2888 7.07406ZM65.8833 0.28478L65.5927 3.27067C63.7535 3.09168 61.8879 3 60 3C58.1121 3 56.2465 3.09168 54.4073 3.27067L54.1167 0.28478C56.0523 0.096402 58.0149 0 60 0C61.9851 0 63.9477 0.0964021 65.8833 0.28478ZM42.577 2.5688L43.4469 5.43992C39.8437 6.53159 36.391 7.97071 33.1276 9.71861L31.7112 7.07406C35.1468 5.23388 38.7824 3.71845 42.577 2.5688ZM21.9358 13.6176L23.8403 15.9356C20.9549 18.3063 18.3063 20.9549 15.9356 23.8403L13.6176 21.9358C16.1123 18.8994 18.8994 16.1123 21.9358 13.6176ZM7.07407 31.7112L9.71861 33.1276C7.97071 36.391 6.53159 39.8437 5.43992 43.4469L2.5688 42.577C3.71845 38.7824 5.23388 35.1468 7.07407 31.7112ZM0.28478 54.1167C0.0964022 56.0523 0 58.0149 0 60C0 61.9851 0.0964019 63.9477 0.28478 65.8833L3.27067 65.5927C3.09168 63.7535 3 61.8879 3 60C3 58.1121 3.09168 56.2465 3.27067 54.4073L0.28478 54.1167ZM2.5688 77.423L5.43992 76.5531C6.53159 80.1563 7.97071 83.609 9.71861 86.8724L7.07406 88.2888C5.23388 84.8532 3.71845 81.2176 2.5688 77.423ZM13.6176 98.0642C16.1123 101.101 18.8994 103.888 21.9358 106.382L23.8403 104.064C20.9549 101.694 18.3063 99.0451 15.9356 96.1597L13.6176 98.0642ZM31.7112 112.926L33.1276 110.281C36.391 112.029 39.8437 113.468 43.4469 114.56L42.577 117.431C38.7824 116.282 35.1468 114.766 31.7112 112.926ZM54.1167 119.715L54.4073 116.729C56.2465 116.908 58.1121 117 60 117C61.8879 117 63.7535 116.908 65.5927 116.729L65.8833 119.715C63.9477 119.904 61.9851 120 60 120C58.0149 120 56.0523 119.904 54.1167 119.715ZM77.423 117.431L76.5531 114.56C80.1563 113.468 83.609 112.029 86.8724 110.281L88.2888 112.926C84.8532 114.766 81.2176 116.282 77.423 117.431ZM98.0642 106.382C101.101 103.888 103.888 101.101 106.382 98.0642L104.064 96.1597C101.694 99.0451 99.0451 101.694 96.1597 104.064L98.0642 106.382ZM112.926 88.2888L110.281 86.8724C112.029 83.609 113.468 80.1563 114.56 76.5531L117.431 77.423C116.282 81.2176 114.766 84.8532 112.926 88.2888Z" fill="#269E96"/>
<path fill-rule="evenodd" clip-rule="evenodd" d="M67.8694 65.08C68.0561 66.6131 67.6475 68.0087 66.6894 69.1176C65.4348 70.5675 63.2601 71.4945 60.8067 71.6617V74.0128C60.8067 74.4637 60.4408 74.8296 59.9895 74.8296C59.5386 74.8296 59.1727 74.4637 59.1727 74.0128V71.6524C56.1093 71.3741 52.9646 69.6601 52.0892 66.1494C51.9802 65.711 52.2457 65.269 52.6841 65.1592C53.1238 65.0499 53.5644 65.3166 53.6747 65.7541C54.439 68.821 57.5121 70.1336 60.2602 70.062C61.964 70.0216 64.224 69.4716 65.4538 68.0501C66.1123 67.2885 66.3786 66.3566 66.2479 65.2767C65.9473 62.798 63.9817 61.3921 59.8779 60.7185C55.3397 59.9728 52.9593 57.9881 52.8054 54.8198C52.6578 51.796 54.7972 49.2572 58.1291 48.5014C58.4666 48.4249 58.8169 48.3737 59.1735 48.3386V45.9715C59.1735 45.5206 59.5394 45.1556 59.9903 45.1556C60.4416 45.1556 60.8075 45.5206 60.8075 45.9715V48.331C63.3792 48.56 66.0015 49.9343 67.2659 52.9447C67.4407 53.3609 67.2459 53.8393 66.8302 54.0136C66.4127 54.1888 65.9356 53.9931 65.7605 53.5774C64.4088 50.358 61.0449 49.5154 58.4915 50.0935C56.5388 50.5363 54.3046 52.0196 54.4366 54.7406C54.55 57.0659 56.4174 58.494 60.1428 59.1062C61.9106 59.3956 67.2865 60.2792 67.8694 65.08ZM59.9904 77.7586C69.7879 77.7586 77.7578 69.7885 77.7578 59.9922C77.7578 50.1938 69.7877 42.2236 59.9904 42.2236C50.1938 42.2236 42.2229 50.1937 42.2229 59.9911C42.2229 69.7885 50.1939 77.7586 59.9904 77.7586ZM59.9904 40.5903C49.2925 40.5903 40.5895 49.2936 40.5895 59.9911C40.5895 70.6889 49.292 79.3919 59.9904 79.3919C70.6887 79.3919 79.3912 70.6886 79.3912 59.9911C79.3912 49.2936 70.6883 40.5903 59.9904 40.5903ZM88.5674 62.3677V57.6143L84.168 55.9198C83.9057 55.8198 83.7145 55.5904 83.6603 55.3156C83.0436 52.1739 81.8218 49.2297 80.0318 46.5625C79.8753 46.3295 79.849 46.0325 79.9633 45.7755L81.8787 41.4632L78.5179 38.1024L74.2034 40.0178C73.9473 40.1312 73.6498 40.1063 73.4173 39.9493C70.7509 38.1585 67.8063 36.9384 64.6655 36.3213C64.3907 36.267 64.1617 36.0754 64.0613 35.8135L62.3677 31.4141H57.6143L55.9194 35.8154C55.8194 36.0777 55.5899 36.2689 55.3152 36.3231C52.1748 36.9393 49.2306 38.1598 46.5633 39.9511C46.3308 40.1076 46.0334 40.133 45.7773 40.0196L41.4628 38.1042L38.102 41.465L40.0187 45.7786C40.1321 46.0347 40.1063 46.3317 39.9503 46.5647C38.1589 49.2311 36.9384 52.1753 36.3217 55.3165C36.2675 55.5913 36.0768 55.8203 35.8144 55.9207L31.4141 57.6143V62.3677L35.8135 64.0621C36.0759 64.1622 36.267 64.3903 36.3213 64.6664C36.938 67.8076 38.1597 70.7523 39.9498 73.4194C40.1063 73.652 40.1325 73.9494 40.0183 74.2051L38.1029 78.5183L41.4637 81.8791L45.7782 79.9628C46.0343 79.8495 46.3317 79.8752 46.5642 80.0313C49.2306 81.8226 52.1753 83.0431 55.3161 83.6584C55.5908 83.7127 55.8198 83.9043 55.9203 84.1662L57.6152 88.5674H62.3686L64.0635 84.1688C64.1636 83.9065 64.3916 83.7153 64.6677 83.6611C67.809 83.0444 70.7536 81.8226 73.42 80.0326C73.6526 79.8761 73.95 79.8511 74.2061 79.9641L78.5193 81.8795L81.8801 78.5187L79.9639 74.2042C79.8505 73.9481 79.8763 73.6506 80.0323 73.4181C81.8236 70.7517 83.0441 67.8071 83.6595 64.6663C83.7137 64.3915 83.9053 64.1625 84.1681 64.062L88.5674 62.3677ZM89.6776 56.2911L85.1714 54.5562C84.5187 51.5146 83.3316 48.6504 81.6372 46.0313L83.5983 41.6144C83.7366 41.3059 83.6681 40.9444 83.4298 40.7057L79.2762 36.5512C79.0366 36.3129 78.6756 36.2453 78.3675 36.3818L73.9494 38.3443C71.3292 36.6498 68.4664 35.4628 65.4257 34.8105L63.6908 30.3029C63.569 29.9886 63.2653 29.7805 62.9283 29.7805H57.0541C56.7162 29.7805 56.4134 29.9882 56.2911 30.3038L54.5563 34.8114C51.5155 35.4632 48.6523 36.6507 46.0325 38.3452L41.6145 36.3827C41.305 36.2453 40.944 36.3129 40.7057 36.5521L36.5512 40.7066C36.3129 40.9458 36.2444 41.3068 36.3827 41.6153L38.3452 46.0326C36.6503 48.6519 35.4623 51.5156 34.8109 54.5564L30.3034 56.2912C29.9886 56.4126 29.7805 56.7154 29.7805 57.0533V62.9279C29.7805 63.2658 29.9881 63.5686 30.3029 63.6896L34.8091 65.4244C35.4618 68.4651 36.6489 71.3289 38.3434 73.9491L36.3822 78.3663C36.244 78.6744 36.3124 79.0364 36.5507 79.2747L40.7052 83.4292C40.9435 83.6675 41.3046 83.7346 41.614 83.5977L46.0321 81.6352C48.6523 83.3301 51.5151 84.5167 54.5558 85.1694L56.2907 89.677C56.4121 89.9922 56.7157 90.1994 57.0536 90.1994H62.9278C63.2657 90.1994 63.5685 89.9917 63.6899 89.677L65.4248 85.1708C68.4655 84.5181 71.3301 83.331 73.9494 81.6365L78.3667 83.5977C78.6748 83.7346 79.0358 83.6675 79.2755 83.4292L83.429 79.2747C83.6673 79.0364 83.7358 78.674 83.5975 78.3663L81.6359 73.9491C83.3309 71.3289 84.5174 68.4661 85.1702 65.4253L89.6777 63.6905C89.993 63.5695 90.2002 63.2663 90.2002 62.9288V57.0542C90.2011 56.7154 89.993 56.4126 89.6777 56.2912L89.6776 56.2911Z" fill="#5FC6C1"/>
</svg>
