<svg width="94" height="89" viewBox="0 0 94 89" fill="none" xmlns="http://www.w3.org/2000/svg">
<path fill-rule="evenodd" clip-rule="evenodd" d="M3.11454 46.0238C2.62369 47.5746 2.05811 48.8368 1.36647 49.5825L0.633301 48.9024C1.16353 48.3308 1.67608 47.2546 2.16116 45.7221C2.64035 44.2081 3.07288 42.3162 3.47794 40.1752C4.11675 36.7985 4.6803 32.8414 5.2519 28.8277C5.40549 27.7493 5.55965 26.6667 5.71602 25.5903C6.45216 20.5225 7.23753 15.5858 8.23958 11.9127C8.73965 10.0796 9.3029 8.52518 9.96043 7.41893C10.6045 6.3353 11.4306 5.53391 12.4999 5.53391C13.1687 5.5339 13.662 6.02845 14.02 6.61546C14.391 7.22375 14.7124 8.08169 14.9993 9.12218C15.5753 11.2109 16.0477 14.171 16.4538 17.69C17.2485 24.5757 17.7997 33.6988 18.3528 42.8522L18.3912 43.4868C18.9579 52.8625 19.5324 62.2166 20.3773 69.2267C20.8002 72.7353 21.288 75.6306 21.8685 77.64C22.1598 78.6484 22.4653 79.3999 22.7776 79.889C23.1001 80.3942 23.3492 80.5 23.4999 80.5C24.051 80.5 24.6452 80.0923 25.2689 79.0587C25.8798 78.0461 26.4335 76.568 26.944 74.7453C27.9633 71.1062 28.7717 66.2411 29.5631 61.3395C29.6087 61.0574 29.6542 60.7752 29.6996 60.4932C30.4414 55.8917 31.1779 51.3222 32.0689 47.841C32.5409 45.9968 33.065 44.4213 33.6739 43.2982C34.2623 42.2131 35.0361 41.359 36.0779 41.3654C36.9875 41.3709 37.7428 41.7987 38.3641 42.4641C38.9771 43.1205 39.4817 44.029 39.9181 45.0672C40.7564 47.0614 41.3992 49.6781 42.0345 52.264C42.0601 52.3683 42.0858 52.4726 42.1114 52.5768C42.7788 55.291 43.4466 57.9443 44.3316 59.9203C45.2354 61.9385 46.2527 63 47.4999 63C48.9623 63 50.0042 62.5462 50.8343 61.8721C51.6818 61.1839 52.3245 60.2546 52.9603 59.2629C53.038 59.1418 53.1157 59.0194 53.1939 58.8962C53.7395 58.0372 54.3061 57.1452 54.9961 56.4525C55.8098 55.6357 56.821 55.0656 58.2124 55.0656C58.6937 55.0656 59.1977 54.8014 59.7363 54.1943C60.2741 53.5882 60.7931 52.6978 61.297 51.588C62.3037 49.3706 63.1927 46.4094 64.0573 43.4382C64.1302 43.1878 64.2029 42.9373 64.2754 42.6872C65.0579 39.991 65.8271 37.3404 66.645 35.3672C67.0905 34.2925 67.5681 33.3731 68.0986 32.7501C68.6275 32.1289 69.3083 31.6968 70.1186 31.8948C70.8612 32.0763 71.4641 32.7401 71.9682 33.5513C72.4875 34.387 72.9742 35.4989 73.4388 36.7702C74.3059 39.1424 75.1278 42.1592 75.9466 45.1649C76.0059 45.3825 76.0652 45.6002 76.1244 45.8175C77.0068 49.052 77.8889 52.2169 78.8329 54.5727C79.3058 55.7528 79.7819 56.6972 80.2621 57.3387C80.7545 57.9961 81.1683 58.2272 81.4999 58.2272C81.9239 58.2272 82.3687 58.0464 82.8468 57.6593C83.3269 57.2707 83.8103 56.698 84.2976 55.9772C85.2731 54.5339 86.2005 52.5949 87.1197 50.6128C87.2148 50.4078 87.3098 50.2023 87.4048 49.9968C88.2186 48.2365 89.0285 46.4845 89.845 45.131C90.3012 44.3747 90.7761 43.7137 91.2762 43.2367C91.7728 42.763 92.349 42.4192 92.9999 42.4192V43.4192C92.7164 43.4192 92.3761 43.5695 91.9665 43.9603C91.5603 44.3477 91.139 44.9217 90.7013 45.6475C89.9153 46.9505 89.13 48.6488 88.3103 50.4213C88.2163 50.6246 88.1219 50.8288 88.0269 51.0336C87.1133 53.0035 86.154 55.0165 85.126 56.5372C84.6115 57.2984 84.0639 57.9607 83.476 58.4366C82.8862 58.914 82.2258 59.2272 81.4999 59.2272C80.6815 59.2272 80.0082 58.6679 79.4617 57.938C78.9031 57.1921 78.3886 56.1524 77.9047 54.9447C76.9351 52.5252 76.0382 49.3011 75.1597 46.0807C75.1015 45.8675 75.0435 45.6544 74.9855 45.4415C74.1625 42.4208 73.3514 39.4439 72.4996 37.1135C72.0434 35.8653 71.5844 34.8284 71.1188 34.0791C70.638 33.3054 70.2167 32.9483 69.8812 32.8663C69.6133 32.8008 69.2879 32.8957 68.86 33.3983C68.4336 33.8992 68.0038 34.7006 67.5688 35.7501C66.7735 37.6689 66.0199 40.2648 65.2319 42.9796C65.1607 43.2248 65.0893 43.4709 65.0175 43.7176C64.1571 46.6743 63.2492 49.707 62.2075 52.0014C61.6871 53.1476 61.1191 54.1426 60.4843 54.858C59.8506 55.5723 59.0967 56.0656 58.2124 56.0656C57.1414 56.0656 56.3729 56.4873 55.7046 57.1582C55.0977 57.7675 54.5952 58.5572 54.0414 59.4277C53.9628 59.5511 53.8832 59.6763 53.8021 59.8027C53.1661 60.7947 52.4493 61.8489 51.4647 62.6484C50.4628 63.462 49.2 64 47.4999 64C45.5846 64 44.3292 62.3617 43.4189 60.329C42.4897 58.2542 41.8017 55.5056 41.1403 52.8156C41.1182 52.7256 41.0961 52.6357 41.074 52.5459C40.4294 49.9227 39.8031 47.3742 38.9963 45.4547C38.5794 44.463 38.1297 43.6782 37.6332 43.1466C37.1451 42.6239 36.6358 42.3688 36.0718 42.3653C35.6402 42.3627 35.1224 42.7248 34.553 43.7749C34.0042 44.787 33.5043 46.2659 33.0377 48.0889C32.1585 51.5241 31.4287 56.0512 30.6836 60.6725C30.6393 60.9477 30.5949 61.2232 30.5504 61.4989C29.7614 66.3854 28.9445 71.3107 27.907 75.015C27.3891 76.864 26.8066 78.4458 26.1251 79.5753C25.4563 80.6837 24.6019 81.5 23.4999 81.5C22.8241 81.5 22.3133 81.0202 21.9347 80.4272C21.5458 79.8181 21.2087 78.959 20.9078 77.9176C20.3039 75.8273 19.8087 72.8659 19.3845 69.3464C18.5353 62.3003 17.9591 52.9129 17.393 43.5471L17.3558 42.9322C16.8018 33.7628 16.2519 24.6627 15.4604 17.8047C15.0554 14.2957 14.5898 11.399 14.0353 9.38802C13.7569 8.37866 13.465 7.626 13.1662 7.13615C12.8545 6.62503 12.6217 6.5339 12.4999 6.53391C11.9879 6.53391 11.4214 6.91812 10.8201 7.92987C10.2321 8.91901 9.69704 10.3698 9.20433 12.1758C8.22083 15.781 7.44292 20.6584 6.70563 25.7341C6.55041 26.8026 6.39702 27.8798 6.24392 28.9549C5.6719 32.9717 5.10399 36.9597 4.46051 40.3611C4.05248 42.5178 3.61128 44.4544 3.11454 46.0238Z" fill="#B93BF5"/>
<g opacity="0.1">
<path fill-rule="evenodd" clip-rule="evenodd" d="M0.5 89V0H1.5V89H0.5Z" fill="#26233C"/>
<path fill-rule="evenodd" clip-rule="evenodd" d="M23.5 89V0H24.5V89H23.5Z" fill="#26233C"/>
<path fill-rule="evenodd" clip-rule="evenodd" d="M46.5 89V0H47.5V89H46.5Z" fill="#26233C"/>
<path fill-rule="evenodd" clip-rule="evenodd" d="M92.5 89V0H93.5V89H92.5Z" fill="#26233C"/>
<path fill-rule="evenodd" clip-rule="evenodd" d="M69.5 89V0H70.5V89H69.5Z" fill="#26233C"/>
</g>
</svg>
