<svg width="94" height="89" viewBox="0 0 94 89" fill="none" xmlns="http://www.w3.org/2000/svg">
<path fill-rule="evenodd" clip-rule="evenodd" d="M80.5488 22.1453C80.9566 21.7525 81.4416 21.5 82.0001 21.5C82.9603 21.5 83.7699 21.9423 84.4448 22.6286C85.1124 23.3075 85.671 24.2461 86.1549 25.3083C87.1216 27.4304 87.851 30.1881 88.5218 32.7241L88.5226 32.7269C89.2042 35.3042 89.818 37.616 90.5488 38.9682C90.9225 39.6598 91.253 39.9557 91.5114 40.024C91.7141 40.0776 92.0655 40.03 92.6335 39.4175L93.3667 40.0976C92.7129 40.8025 92.0017 41.1879 91.2559 40.9908C90.5656 40.8084 90.0615 40.1698 89.669 39.4437C88.877 37.9781 88.238 35.5621 87.5797 33.0731L87.5558 32.9826C86.8783 30.4213 86.1696 27.7529 85.2449 25.7229C84.7829 24.7087 84.2822 23.8895 83.7318 23.3297C83.1885 22.7773 82.6212 22.5 82.0001 22.5C81.768 22.5 81.5192 22.599 81.2425 22.8655C80.96 23.1376 80.6734 23.5625 80.3902 24.1506C79.8241 25.326 79.3258 27.0366 78.8755 29.1361C77.9955 33.2389 77.3257 38.6898 76.6483 44.2019L76.6042 44.561C75.9138 50.1781 75.2106 55.83 74.2633 60.0776C73.7905 62.1977 73.2494 64.0043 72.6014 65.2913C71.9746 66.5361 71.1417 67.5 70.0001 67.5C69.3903 67.5 68.8822 67.1723 68.473 66.6981C68.0667 66.2272 67.7163 65.567 67.4055 64.7786C66.7826 63.1979 66.2692 60.9696 65.8275 58.3378C64.9427 53.0664 64.3254 46.0478 63.7325 39.0558C63.6985 38.654 63.6645 38.2524 63.6306 37.8512C63.0725 31.2556 62.5239 24.7713 61.7812 19.8397C61.3867 17.2203 60.9416 15.0693 60.4218 13.5815C60.161 12.8349 59.8926 12.289 59.6249 11.9382C59.3557 11.5855 59.1449 11.5009 58.9971 11.5C58.4679 11.4968 57.948 11.7796 57.4159 12.4249C56.8815 13.0731 56.3853 14.03 55.9154 15.2296C55.0067 17.5496 54.2498 20.6329 53.4751 23.7886C53.4492 23.8942 53.4232 24 53.3972 24.1057C52.601 27.3475 51.7801 30.641 50.7549 33.1233C50.2425 34.3639 49.6646 35.439 48.9873 36.2111C48.3055 36.9882 47.4834 37.5 46.5001 37.5C44.8702 37.5 43.6585 37.27 42.6791 36.9126C41.7004 36.5554 40.9777 36.0793 40.3318 35.6267C40.2502 35.5694 40.1702 35.5129 40.0914 35.4573C39.539 35.0672 39.0457 34.7187 38.444 34.4473C37.7719 34.1441 36.9527 33.9344 35.7876 33.9344C35.3063 33.9344 34.8023 34.1986 34.2637 34.8057C33.7259 35.4118 33.2069 36.3022 32.703 37.412C31.6963 39.6294 30.8073 42.5906 29.9427 45.5618C29.8698 45.8122 29.7971 46.0627 29.7245 46.3129C28.9421 49.009 28.1729 51.6596 27.355 53.6328C26.9095 54.7075 26.4319 55.6269 25.9014 56.2499C25.3725 56.8711 24.6917 57.3032 23.8814 57.1052C23.1388 56.9237 22.5359 56.2599 22.0318 55.4487C21.5125 54.613 21.0258 53.5011 20.5612 52.2298C19.694 49.8576 18.8722 46.8408 18.0534 43.8351C17.9941 43.6175 17.9348 43.3998 17.8756 43.1825C16.9932 39.948 16.1111 36.7831 15.1671 34.4273C14.6942 33.2472 14.2181 32.3028 13.7379 31.6613C13.2455 31.0039 12.8317 30.7728 12.5001 30.7728C12.0761 30.7728 11.6313 30.9536 11.1532 31.3407C10.6731 31.7293 10.1897 32.302 9.70245 33.0228C8.72688 34.4661 7.79948 36.4051 6.88027 38.3872C6.78519 38.5922 6.69017 38.7977 6.5952 39.0032C5.78143 40.7634 4.97148 42.5155 4.15501 43.869C3.69884 44.6253 3.22388 45.2863 2.72377 45.7633C2.22716 46.237 1.65098 46.5808 1.00011 46.5808V45.5808C1.28362 45.5808 1.62386 45.4305 2.03355 45.0397C2.43973 44.6523 2.86096 44.0783 3.29874 43.3525C4.08474 42.0495 4.87006 40.3512 5.6897 38.5787C5.78369 38.3754 5.87814 38.1712 5.97308 37.9664C6.8867 35.9965 7.84602 33.9835 8.87396 32.4628C9.38852 31.7016 9.93607 31.0393 10.524 30.5634C11.1138 30.086 11.7742 29.7728 12.5001 29.7728C13.3185 29.7728 13.9918 30.3321 14.5383 31.062C15.0969 31.8079 15.6114 32.8476 16.0953 34.0553C17.0649 36.4748 17.9618 39.6989 18.8403 42.9193C18.8985 43.1325 18.9565 43.3456 19.0145 43.5586C19.8375 46.5792 20.6486 49.5561 21.5004 51.8865C21.9566 53.1347 22.4156 54.1717 22.8812 54.9209C23.362 55.6946 23.7833 56.0518 24.1188 56.1337C24.3867 56.1992 24.7121 56.1043 25.14 55.6017C25.5664 55.1008 25.9962 54.2995 26.4312 53.2499C27.2265 51.3311 27.9801 48.7352 28.7682 46.0204C28.8393 45.7752 28.9108 45.5291 28.9825 45.2824C29.8429 42.3257 30.7508 39.293 31.7925 36.9986C32.3129 35.8524 32.8809 34.8574 33.5157 34.142C34.1494 33.4277 34.9033 32.9344 35.7876 32.9344C37.0849 32.9344 38.0454 33.1704 38.8552 33.5358C39.5506 33.8495 40.1264 34.2568 40.6733 34.6438C40.7513 34.699 40.8287 34.7537 40.9058 34.8077C41.5317 35.2465 42.1685 35.6618 43.0219 35.9732C43.8745 36.2843 44.9675 36.5 46.5001 36.5C47.0981 36.5 47.6683 36.1982 48.2356 35.5516C48.8073 34.8999 49.3351 33.9412 49.8306 32.7416C50.8211 30.3432 51.6247 27.13 52.4261 23.8672C52.4552 23.7489 52.4842 23.6305 52.5133 23.512C53.2799 20.389 54.0507 17.2485 54.9843 14.8649C55.4684 13.6288 56.0106 12.5575 56.6444 11.7888C57.2805 11.0172 58.0588 10.4942 59.0032 10.5C59.5921 10.5036 60.0603 10.8604 60.4198 11.3315C60.7808 11.8045 61.0909 12.4646 61.3659 13.2517C61.9177 14.8313 62.3736 17.0584 62.77 19.6907C63.5178 24.6561 64.069 31.1712 64.6258 37.7523C64.6601 38.1585 64.6945 38.5649 64.729 38.9713C65.3228 45.9747 65.937 52.9493 66.8137 58.1723C67.2527 60.7878 67.7525 62.9319 68.3359 64.4119C68.6283 65.1538 68.9292 65.696 69.2302 66.0449C69.5283 66.3904 69.7834 66.5 70.0001 66.5C70.5117 66.5 71.0959 66.0577 71.7082 64.8415C72.2993 63.6676 72.8193 61.9586 73.2873 59.8599C74.2217 55.67 74.9193 50.0719 75.6117 44.439C75.6277 44.3089 75.6437 44.1787 75.6596 44.0485C76.3338 38.5618 77.0082 33.0736 77.8978 28.9264C78.3523 26.8072 78.8702 25.0021 79.4893 23.7166C79.7987 23.0742 80.1469 22.5323 80.5488 22.1453Z" fill="#3BA7F5"/>
<g opacity="0.1">
<path fill-rule="evenodd" clip-rule="evenodd" d="M93.5 0V89H92.5V0H93.5Z" fill="#26233C"/>
<path fill-rule="evenodd" clip-rule="evenodd" d="M70.5 0V89H69.5V0H70.5Z" fill="#26233C"/>
<path fill-rule="evenodd" clip-rule="evenodd" d="M47.5 0V89H46.5V0H47.5Z" fill="#26233C"/>
<path fill-rule="evenodd" clip-rule="evenodd" d="M1.5 0V89H0.5V0H1.5Z" fill="#26233C"/>
<path fill-rule="evenodd" clip-rule="evenodd" d="M24.5 0V89H23.5V0H24.5Z" fill="#26233C"/>
</g>
</svg>
