<svg width="94" height="89" viewBox="0 0 94 89" fill="none" xmlns="http://www.w3.org/2000/svg">
<path fill-rule="evenodd" clip-rule="evenodd" d="M90.8855 46.0238C91.3763 47.5746 91.9419 48.8368 92.6335 49.5825L93.3667 48.9024C92.8365 48.3308 92.3239 47.2546 91.8388 45.7221C91.3597 44.2081 90.9271 42.3162 90.5221 40.1752C89.8833 36.7985 89.3197 32.8414 88.7481 28.8277C88.5945 27.7493 88.4403 26.6667 88.284 25.5903C87.5478 20.5225 86.7625 15.5858 85.7604 11.9127C85.2604 10.0796 84.6971 8.52518 84.0396 7.41893C83.3955 6.3353 82.5694 5.53391 81.5001 5.53391C80.8687 5.5339 80.3731 5.9386 79.9953 6.46398C79.6131 6.9956 79.282 7.7421 78.9863 8.63977C78.393 10.4413 77.8996 12.9886 77.4698 16.0081C76.6285 21.9169 76.0162 29.7437 75.4023 37.5907L75.3595 38.1378C74.7301 46.1793 74.0935 54.1957 73.2026 60.2017C72.7566 63.2084 72.2509 65.6821 71.6606 67.3945C71.3645 68.2536 71.0583 68.8873 70.7499 69.2972C70.4392 69.7102 70.1875 69.8197 70.0001 69.8197C69.3777 69.8197 68.7901 69.4915 68.2127 68.7804C67.6312 68.0643 67.1053 67.0114 66.6219 65.6962C65.656 63.068 64.9128 59.5475 64.1831 55.9789C64.1409 55.7725 64.0988 55.5659 64.0566 55.3594C63.3747 52.0182 62.6939 48.682 61.8427 46.1375C61.3914 44.7883 60.8796 43.6208 60.2691 42.7832C59.659 41.946 58.8889 41.3594 57.9221 41.3654C57.3939 41.3686 56.9368 41.6055 56.5546 41.9719C56.1786 42.3323 55.8561 42.8342 55.5721 43.4252C55.0042 44.6075 54.5368 46.2627 54.1315 48.2002C53.3491 51.9403 52.7719 56.8695 52.1934 61.8089C52.1715 61.9963 52.1495 62.1837 52.1276 62.371C51.5247 67.5142 50.9121 72.6202 50.0587 76.4402C49.6311 78.3538 49.1509 79.9072 48.5998 80.9716C48.0311 82.0699 47.4857 82.4661 47.0001 82.4661C46.4136 82.4661 45.8508 82.1549 45.2911 81.4718C44.728 80.7847 44.2144 79.7735 43.7405 78.5093C42.7938 75.9837 42.0585 72.5978 41.3587 69.166C41.2717 68.7393 41.1853 68.312 41.099 67.8856C40.496 64.9046 39.903 61.9736 39.2058 59.7003C38.8079 58.4031 38.3647 57.28 37.8443 56.4722C37.3327 55.678 36.6637 55.0656 35.7876 55.0656C35.3063 55.0656 34.8023 54.8014 34.2637 54.1943C33.7259 53.5882 33.2069 52.6978 32.703 51.588C31.6963 49.3706 30.8073 46.4094 29.9427 43.4382C29.8698 43.1878 29.7971 42.9373 29.7246 42.6872C28.9421 39.991 28.1729 37.3404 27.355 35.3672C26.9095 34.2925 26.4319 33.3731 25.9014 32.7501C25.3725 32.1289 24.6917 31.6968 23.8814 31.8948C23.1388 32.0763 22.5359 32.7401 22.0318 33.5513C21.5125 34.387 21.0258 35.4989 20.5612 36.7702C19.6941 39.1424 18.8722 42.1592 18.0534 45.1649C17.9941 45.3825 17.9348 45.6002 17.8756 45.8175C16.9932 49.052 16.1111 52.2169 15.1671 54.5727C14.6942 55.7528 14.2181 56.6972 13.7379 57.3387C13.2455 57.9961 12.8317 58.2272 12.5001 58.2272C12.0761 58.2272 11.6313 58.0464 11.1532 57.6593C10.6731 57.2707 10.1897 56.698 9.70245 55.9772C8.72688 54.5339 7.79948 52.5949 6.88027 50.6128C6.78518 50.4078 6.69016 50.2023 6.59518 49.9968C5.78143 48.2365 4.97148 46.4845 4.15501 45.131C3.69884 44.3747 3.22388 43.7137 2.72377 43.2367C2.22716 42.763 1.65098 42.4192 1.00011 42.4192V43.4192C1.28362 43.4192 1.62386 43.5695 2.03355 43.9603C2.43973 44.3477 2.86096 44.9217 3.29874 45.6475C4.08473 46.9505 4.87005 48.6488 5.68969 50.4213C5.78368 50.6246 5.87813 50.8288 5.97308 51.0336C6.8867 53.0035 7.84602 55.0165 8.87396 56.5372C9.38852 57.2984 9.93607 57.9607 10.524 58.4366C11.1138 58.914 11.7742 59.2272 12.5001 59.2272C13.3185 59.2272 13.9918 58.6679 14.5383 57.938C15.0969 57.1921 15.6114 56.1524 16.0953 54.9447C17.0649 52.5252 17.9618 49.3011 18.8403 46.0807C18.8985 45.8675 18.9565 45.6544 19.0145 45.4415C19.8375 42.4208 20.6486 39.4439 21.5004 37.1135C21.9566 35.8653 22.4156 34.8284 22.8812 34.0791C23.362 33.3054 23.7833 32.9483 24.1188 32.8663C24.3867 32.8008 24.7121 32.8957 25.14 33.3983C25.5664 33.8992 25.9962 34.7006 26.4312 35.7501C27.2265 37.6689 27.9801 40.2648 28.7681 42.9796C28.8393 43.2248 28.9107 43.4709 28.9825 43.7176C29.8429 46.6743 30.7508 49.707 31.7925 52.0014C32.3129 53.1476 32.8809 54.1426 33.5157 54.858C34.1494 55.5723 34.9033 56.0656 35.7876 56.0656C36.1427 56.0656 36.5499 56.3094 37.0036 57.0137C37.4485 57.7043 37.8597 58.722 38.2497 59.9935C38.9314 62.2159 39.5133 65.0918 40.1183 68.0816C40.2046 68.5079 40.2913 68.9364 40.3789 69.3658C41.0759 72.784 41.8251 76.2483 42.8042 78.8603C43.2932 80.1649 43.8528 81.2943 44.5176 82.1056C45.1857 82.921 46.0054 83.4661 47.0001 83.4661C48.0958 83.4661 48.8935 82.5791 49.4878 81.4314C50.0995 80.25 50.6019 78.5949 51.0346 76.6582C51.9016 72.7774 52.5198 67.615 53.1208 62.4875C53.1417 62.309 53.1626 62.1307 53.1834 61.9524C53.7647 56.9897 54.3374 52.0999 55.1103 48.4049C55.5114 46.4875 55.9594 44.9286 56.4735 43.8582C56.7307 43.323 56.9909 42.9389 57.2466 42.6938C57.496 42.4547 57.7196 42.3666 57.9282 42.3653C58.4349 42.3622 58.9406 42.6581 59.4609 43.3721C59.9809 44.0856 60.454 45.1381 60.8944 46.4547C61.7253 48.9389 62.3948 52.2185 63.0821 55.5855C63.1225 55.7831 63.1629 55.9811 63.2034 56.1792C63.9291 59.7287 64.6863 63.3284 65.6833 66.0411C66.1814 67.3963 66.7528 68.569 67.4364 69.4108C68.124 70.2576 68.9694 70.8197 70.0001 70.8197C70.6393 70.8197 71.1513 70.4271 71.549 69.8984C71.9492 69.3665 72.2963 68.6191 72.6061 67.7204C73.2276 65.9172 73.7438 63.3685 74.1918 60.3484C75.0888 54.3008 75.7279 46.2458 76.3564 38.2158L76.3974 37.6915C77.0128 29.8261 77.6231 22.0259 78.4598 16.149C78.8879 13.1417 79.3716 10.6666 79.9361 8.95259C80.2194 8.09245 80.5124 7.45781 80.8072 7.04774C81.1066 6.63144 81.3409 6.5339 81.5001 6.53391C82.0121 6.53391 82.5786 6.91812 83.1799 7.92987C83.7679 8.91901 84.303 10.3698 84.7957 12.1758C85.7792 15.781 86.5571 20.6584 87.2944 25.7341C87.4496 26.8026 87.603 27.8798 87.7561 28.9549C88.3281 32.9717 88.896 36.9597 89.5395 40.3611C89.9475 42.5178 90.3887 44.4544 90.8855 46.0238Z" fill="#F5CC3B"/>
<g opacity="0.1">
<path fill-rule="evenodd" clip-rule="evenodd" d="M93.5 89V0H92.5V89H93.5Z" fill="#26233C"/>
<path fill-rule="evenodd" clip-rule="evenodd" d="M70.5 89V0H69.5V89H70.5Z" fill="#26233C"/>
<path fill-rule="evenodd" clip-rule="evenodd" d="M47.5 89V0H46.5V89H47.5Z" fill="#26233C"/>
<path fill-rule="evenodd" clip-rule="evenodd" d="M1.5 89V0H0.5V89H1.5Z" fill="#26233C"/>
<path fill-rule="evenodd" clip-rule="evenodd" d="M24.5 89V0H23.5V89H24.5Z" fill="#26233C"/>
</g>
</svg>
