<svg width="60" height="35" viewBox="0 0 60 35" fill="none" xmlns="http://www.w3.org/2000/svg">
<path fill-rule="evenodd" clip-rule="evenodd" d="M57.3429 17.9259C57.659 18.6141 58.0374 19.2066 58.5166 19.5626C58.7265 19.7186 59.0231 19.6748 59.179 19.4649C59.335 19.255 59.2912 18.9585 59.0813 18.8025C58.7953 18.59 58.4985 18.1732 58.2034 17.5307C57.9132 16.8989 57.6475 16.1006 57.3959 15.1839C56.9988 13.7374 56.6486 12.0431 56.2909 10.3123C56.1944 9.84536 56.0974 9.37577 55.9987 8.90767C55.5382 6.72313 55.0417 4.56703 54.4029 2.95356C54.084 2.14789 53.7167 1.44307 53.2764 0.932574C52.8317 0.416998 52.2756 0.0603038 51.5966 0.0603027C51.1966 0.0603021 50.8563 0.239512 50.5808 0.503556C50.3114 0.761784 50.0864 1.11604 49.8925 1.52181C49.5045 2.33368 49.1895 3.46316 48.9188 4.77325C48.389 7.33805 48.0041 10.7284 47.6205 14.107C47.6112 14.1891 47.6019 14.2712 47.5926 14.3532C47.1978 17.829 46.8008 21.2713 46.2469 23.8446C45.9692 25.1348 45.659 26.1714 45.3069 26.8755C44.9361 27.6168 44.6151 27.806 44.3943 27.806C43.6372 27.806 42.9989 27.2539 42.4025 26.1356C41.8145 25.0332 41.3572 23.5453 40.8983 21.9986C40.8711 21.9067 40.8438 21.8146 40.8165 21.7224C40.3922 20.2894 39.9589 18.826 39.4144 17.7042C38.8515 16.5445 38.0594 15.52 36.8299 15.5251C36.1498 15.528 35.6343 15.9463 35.2521 16.4945C34.8707 17.0417 34.5668 17.7916 34.3095 18.6394C33.8135 20.2734 33.4489 22.4187 33.0883 24.5409C33.074 24.6255 33.0596 24.7101 33.0452 24.7946C32.6665 27.021 32.2864 29.1997 31.7604 30.8221C31.497 31.6349 31.2086 32.2691 30.8911 32.6917C30.5773 33.1093 30.2811 33.2642 29.9897 33.2642C29.2756 33.2642 28.6559 32.739 28.071 31.6636C27.4956 30.6058 27.0432 29.1756 26.6037 27.6903C26.5496 27.5074 26.4956 27.3235 26.4417 27.1396C26.065 25.8562 25.6871 24.5685 25.2414 23.5669C24.986 22.9932 24.6929 22.476 24.3381 22.0965C23.9771 21.7102 23.5232 21.4382 22.9674 21.4382C22.3717 21.4382 21.7751 20.9788 21.1458 20.0237C20.5323 19.0924 19.9855 17.84 19.4423 16.5536C19.3963 16.4445 19.3502 16.3351 19.3041 16.2256C18.8167 15.0679 18.3264 13.9034 17.8026 13.0326C17.5156 12.5554 17.1977 12.1297 16.8353 11.8363C16.4635 11.5354 16.0151 11.3524 15.5064 11.4381C15.019 11.5202 14.609 11.8275 14.2667 12.2071C13.9209 12.5906 13.6036 13.0928 13.3071 13.6518C12.7559 14.6911 12.2351 16.0085 11.7244 17.3005C11.6866 17.3962 11.6489 17.4916 11.6112 17.5869C11.0568 18.9874 10.5125 20.3313 9.93439 21.3254C9.64555 21.8221 9.36331 22.2044 9.08796 22.4578C8.81414 22.7098 8.58293 22.8027 8.38274 22.8027C7.85563 22.8027 7.30783 22.4889 6.70917 21.8786C6.11684 21.2747 5.54872 20.4577 4.97182 19.6005C4.91235 19.5121 4.85274 19.4232 4.79299 19.3342C4.28531 18.5772 3.76772 17.8055 3.24443 17.2077C2.67759 16.5601 1.9911 15.98 1.18042 15.98C0.918934 15.98 0.706955 16.192 0.706955 16.4535C0.706955 16.7149 0.918934 16.9269 1.18042 16.9269C1.54013 16.9269 1.97899 17.1997 2.53189 17.8314C3.01227 18.3802 3.49385 19.0977 4.00943 19.866C4.0679 19.9531 4.12682 20.0409 4.18621 20.1292C4.75719 20.9776 5.3707 21.8663 6.03315 22.5417C6.68926 23.2106 7.4694 23.7497 8.38274 23.7497C8.90279 23.7497 9.35242 23.5014 9.72921 23.1546C10.1045 22.8093 10.4426 22.3352 10.753 21.8014C11.3734 20.7345 11.9432 19.3208 12.4917 17.9354C12.5274 17.8451 12.5631 17.7549 12.5987 17.6649C13.1164 16.3555 13.6184 15.0859 14.1437 14.0955C14.424 13.567 14.6989 13.1418 14.9699 12.8412C15.2445 12.5368 15.4759 12.4035 15.6637 12.3719C15.8302 12.3438 16.012 12.3883 16.2395 12.5724C16.4763 12.7641 16.7267 13.081 16.9912 13.5207C17.4778 14.3297 17.9413 15.4299 18.4378 16.6084C18.4816 16.7124 18.5256 16.8169 18.57 16.9219C19.1071 18.194 19.6857 19.5285 20.3551 20.5446C21.0088 21.5368 21.8526 22.3851 22.9674 22.3851C23.1828 22.3851 23.4029 22.4826 23.6464 22.7431C23.8961 23.0103 24.1382 23.417 24.3763 23.952C24.7941 24.8909 25.1521 26.1095 25.5321 27.4034C25.5861 27.5873 25.6406 27.7727 25.6957 27.959C26.131 29.4302 26.6084 30.9565 27.2391 32.1161C27.8603 33.2581 28.7231 34.2112 29.9897 34.2112C30.6886 34.2112 31.2336 33.8122 31.6481 33.2605C32.0589 32.7138 32.386 31.9632 32.6612 31.1142C33.2128 29.4129 33.6035 27.1598 33.9787 24.9534C33.9911 24.8804 34.0035 24.8075 34.0159 24.7347C34.3818 22.5823 34.7375 20.4895 35.2156 18.9144C35.4632 18.0985 35.7326 17.4611 36.0289 17.0361C36.3245 16.6121 36.5911 16.4731 36.8339 16.4721C37.4501 16.4695 38.0085 16.9762 38.5625 18.1177C39.0716 19.1664 39.4841 20.5587 39.9177 22.0223C39.9419 22.104 39.9662 22.1858 39.9905 22.2679C40.4431 23.7933 40.9255 25.3786 41.5669 26.5812C42.1999 27.7681 43.0808 28.753 44.3943 28.753C45.2089 28.753 45.7657 28.0751 46.1538 27.2991C46.5606 26.4858 46.8905 25.3548 47.1726 24.0439C47.7385 21.4149 48.1404 17.9207 48.5335 14.4601L48.558 14.2443C48.9443 10.8411 49.3252 7.48676 49.8462 4.96483C50.1129 3.67376 50.4097 2.63561 50.7469 1.93013C50.9156 1.57723 51.0815 1.33538 51.2361 1.18718C51.3846 1.04479 51.5015 1.00724 51.5966 1.00724C51.908 1.00724 52.224 1.16225 52.5594 1.55104C52.8991 1.94491 53.2197 2.53713 53.5225 3.3021C54.1273 4.82994 54.6098 6.90961 55.0721 9.10298C55.1686 9.5607 55.2642 10.0233 55.3598 10.4858C55.7183 12.2208 56.0767 13.9557 56.4827 15.4346C56.7403 16.3728 57.0218 17.2269 57.3429 17.9259Z" fill="#F5683B"/>
</svg>
