<svg width="24" height="20" viewBox="0 0 24 20" fill="none" xmlns="http://www.w3.org/2000/svg">
<path d="M7.81926 19.0107C16.3103 19.0107 20.9536 11.9762 20.9536 5.87637C20.9536 5.67658 20.9495 5.47761 20.9406 5.27975C21.8418 4.62808 22.6252 3.81488 23.2433 2.88926C22.4162 3.25706 21.5259 3.50432 20.5923 3.61619C21.5453 3.04447 22.2771 2.14046 22.6221 1.06279C21.7302 1.59158 20.7424 1.97575 19.6909 2.18325C18.8485 1.28598 17.6491 0.724854 16.3211 0.724854C13.772 0.724854 11.7046 2.79212 11.7046 5.34043C11.7046 5.70286 11.7452 6.05511 11.8243 6.39305C7.98768 6.2 4.58544 4.36321 2.30889 1.56998C1.91261 2.25205 1.68392 3.04461 1.68392 3.89029C1.68392 5.49165 2.49891 6.90574 3.73811 7.7327C2.98078 7.70944 2.2694 7.50153 1.64746 7.15548C1.64677 7.17488 1.64677 7.19373 1.64677 7.21437C1.64677 9.45005 3.23795 11.3167 5.35048 11.7397C4.96246 11.8452 4.5542 11.902 4.13316 11.902C3.83622 11.902 3.54672 11.8729 3.26547 11.8188C3.85314 13.653 5.55743 14.9877 7.57791 15.0251C5.99788 16.2635 4.00753 17.0011 1.84436 17.0011C1.47229 17.0011 1.1045 16.9798 0.743164 16.9372C2.78621 18.2467 5.2122 19.0109 7.8194 19.0109" fill="#269E96"/>
</svg>
