<svg display="none" xmlns="http://www.w3.org/2000/svg">
    <symbol id="facebook" viewBox="0 0 12 24">
        <path d="M9.81 3.985H12.001V0.169C11.623 0.117 10.323 0 8.809 0C5.65 0 3.486 1.987 3.486 5.639V9H0V13.266H3.486V24H7.76V13.267H11.105L11.636 9.001H7.759V6.062C7.76 4.829 8.092 3.985 9.81 3.985Z"/>
    </symbol>
    <symbol id="insta" viewBox="0 0 24 24">
        <g>
            <path d="M16.5 0H7.5C3.3585 0 0 3.3585 0 7.5V16.5C0 20.6415 3.3585 24 7.5 24H16.5C20.6415 24 24 20.6415 24 16.5V7.5C24 3.3585 20.6415 0 16.5 0ZM21.75 16.5C21.75 19.395 19.395 21.75 16.5 21.75H7.5C4.605 21.75 2.25 19.395 2.25 16.5V7.5C2.25 4.605 4.605 2.25 7.5 2.25H16.5C19.395 2.25 21.75 4.605 21.75 7.5V16.5Z"/>
            <path d="M11.9996 6.00024C8.68613 6.00024 5.99963 8.68674 5.99963 12.0002C5.99963 15.3137 8.68613 18.0002 11.9996 18.0002C15.3131 18.0002 17.9996 15.3137 17.9996 12.0002C17.9996 8.68674 15.3131 6.00024 11.9996 6.00024ZM11.9996 15.7502C9.93263 15.7502 8.24963 14.0672 8.24963 12.0002C8.24963 9.93174 9.93263 8.25024 11.9996 8.25024C14.0666 8.25024 15.7496 9.93174 15.7496 12.0002C15.7496 14.0672 14.0666 15.7502 11.9996 15.7502Z"/>
            <path d="M18.6466 6.32542C19.0746 6.21673 19.3334 5.78169 19.2247 5.35373C19.1161 4.92577 18.681 4.66694 18.2531 4.77562C17.8251 4.88431 17.5663 5.31935 17.6749 5.74731C17.7836 6.17527 18.2187 6.4341 18.6466 6.32542Z"/>
        </g>
    </symbol>
    <symbol id="twitter" viewBox="0 0 24 20">
        <path d="M7.81926 19.0107C16.3103 19.0107 20.9536 11.9762 20.9536 5.87637C20.9536 5.67658 20.9495 5.47761 20.9406 5.27975C21.8418 4.62808 22.6252 3.81488 23.2433 2.88926C22.4162 3.25706 21.5259 3.50432 20.5923 3.61619C21.5453 3.04447 22.2771 2.14046 22.6221 1.06279C21.7302 1.59158 20.7424 1.97575 19.6909 2.18325C18.8485 1.28598 17.6491 0.724854 16.3211 0.724854C13.772 0.724854 11.7046 2.79212 11.7046 5.34043C11.7046 5.70286 11.7452 6.05511 11.8243 6.39305C7.98768 6.2 4.58544 4.36321 2.30889 1.56998C1.91261 2.25205 1.68392 3.04461 1.68392 3.89029C1.68392 5.49165 2.49891 6.90574 3.73811 7.7327C2.98078 7.70944 2.2694 7.50153 1.64746 7.15548C1.64677 7.17488 1.64677 7.19373 1.64677 7.21437C1.64677 9.45005 3.23795 11.3167 5.35048 11.7397C4.96246 11.8452 4.5542 11.902 4.13316 11.902C3.83622 11.902 3.54672 11.8729 3.26547 11.8188C3.85314 13.653 5.55743 14.9877 7.57791 15.0251C5.99788 16.2635 4.00753 17.0011 1.84436 17.0011C1.47229 17.0011 1.1045 16.9798 0.743164 16.9372C2.78621 18.2467 5.2122 19.0109 7.8194 19.0109"/>
    </symbol>
    <symbol id="globe" viewBox="0 0 22 23">
        <path fill-rule="evenodd" clip-rule="evenodd" d="M11 2.5C6.02944 2.5 2 6.52944 2 11.5C2 16.4706 6.02944 20.5 11 20.5C15.9706 20.5 20 16.4706 20 11.5C20 6.52944 15.9706 2.5 11 2.5ZM0 11.5C0 5.42487 4.92487 0.5 11 0.5C17.0751 0.5 22 5.42487 22 11.5C22 17.5751 17.0751 22.5 11 22.5C4.92487 22.5 0 17.5751 0 11.5Z"/>
        <path fill-rule="evenodd" clip-rule="evenodd" d="M0 11.5C0 10.9477 0.447715 10.5 1 10.5H21C21.5523 10.5 22 10.9477 22 11.5C22 12.0523 21.5523 12.5 21 12.5H1C0.447715 12.5 0 12.0523 0 11.5Z"/>
        <path fill-rule="evenodd" clip-rule="evenodd" d="M8.00023 11.5001C8.06877 14.5749 9.12625 17.5353 11 19.9493C12.8737 17.5353 13.9312 14.5749 13.9998 11.5001C13.9312 8.42527 12.8737 5.46495 11 3.0509C9.12625 5.46495 8.06877 8.42527 8.00023 11.5001ZM11 1.50011L10.2617 0.825684C7.59689 3.74301 6.08251 7.52896 6.00022 11.4793C5.99993 11.4932 5.99993 11.5071 6.00022 11.5209C6.08251 15.4713 7.59689 19.2572 10.2617 22.1745C10.4511 22.3819 10.7191 22.5001 11 22.5001C11.2809 22.5001 11.5489 22.3819 11.7383 22.1745C14.4031 19.2572 15.9175 15.4713 15.9998 11.5209C16.0001 11.5071 16.0001 11.4932 15.9998 11.4793C15.9175 7.52896 14.4031 3.74301 11.7383 0.825684L11 1.50011Z"/>
    </symbol>
</svg>