<svg width="570" height="411" viewBox="0 0 570 411" fill="none" xmlns="http://www.w3.org/2000/svg">
<path d="M505.59 211.471C505.59 332.145 410.401 429.971 292.98 429.971C175.559 429.971 80.37 332.145 80.37 211.471C80.37 90.7964 175.559 -7.02942 292.98 -7.02942C410.401 -7.02942 505.59 90.7964 505.59 211.471Z" fill="#18DDD3" fill-opacity="0.17"/>
<path d="M71.0153 364.762L79.8322 364.977L76.5019 392.683L70.5273 392.537L71.0153 364.762Z" fill="#FFB6B6"/>
<path d="M91.0251 405.403L91.025 405.403C91.025 404.651 90.6459 403.97 90.0602 403.672L83.48 400.317L78.9938 389.577L78.9259 378.757L69.6815 377.634L68.3445 384.527C68.3445 384.527 71.0973 384.103 67.6987 387.149C64.3 390.195 65.9365 396.153 65.9365 396.153L65.1953 407.289H71.3129L71.6413 400.363C76.3994 402.447 77.5664 407.289 77.5664 407.289H89.4253C90.3088 407.289 91.0251 406.445 91.0251 405.403H91.0251H91.0251Z" fill="#2F2E41"/>
<path d="M83.9302 365.067L92.7471 365.282L89.4168 392.988L83.4423 392.842L83.9302 365.067Z" fill="#FFB6B6"/>
<path d="M103.94 405.708H103.94C103.94 404.956 103.561 404.275 102.975 403.977L96.395 400.621L91.9088 389.881L91.8408 379.061L82.5964 377.939L81.2595 384.832C81.2595 384.832 84.0122 384.408 80.6136 387.454C77.2149 390.5 78.8514 396.458 78.8514 396.458L78.1102 407.594H84.2278L84.5562 400.668C89.3143 402.752 90.4813 407.594 90.4813 407.594H102.34C103.224 407.594 103.94 406.75 103.94 405.708L103.94 405.708H103.94Z" fill="#2F2E41"/>
<path d="M73.8189 202.557L63.8237 227.192C60.4919 235.404 59.436 244.41 60.7739 253.205L65.6318 374.227H84.8386L93.2222 266.457L94.8766 309.027L75.649 369.681H94.56L118.834 309.027L120.633 262.324L112.009 226.082L73.8189 202.557L73.8189 202.557Z" fill="#2F2E41"/>
<path d="M344.605 97.147V35.6136C344.605 15.9448 329.157 4.96622e-09 310.102 4.96622e-09H183.8C164.745 -0.000324926 149.298 15.9442 149.297 35.613V373.19C149.297 392.859 164.745 408.803 183.8 408.803H310.101C329.156 408.803 344.603 392.859 344.603 373.19V140.947H344.603C345.803 140.947 346.776 139.943 346.776 138.704L346.778 99.3903C346.778 98.1514 345.805 97.147 344.605 97.147L344.605 97.147V97.147Z" fill="#3F3D56"/>
<path d="M338.125 32.6525V374.998C317.962 373.72 328.218 401.143 311.967 402.005H183.074C168.621 402.007 156.902 389.917 156.898 374.998V32.6525C156.902 17.7347 168.62 5.64427 183.072 5.64618H192.578C189.989 12.2171 210.881 14.3549 212.483 14.357H278.495C285.367 14.348 301.947 7.17757 301.343 5.64618H311.962C326.409 5.64873 338.12 17.7352 338.125 32.6473L338.125 32.6525H338.125Z" fill="white"/>
<path d="M148.281 104.684C147.362 104.684 146.615 105.456 146.615 106.404V120.167C146.615 121.116 147.362 121.888 148.281 121.888C149.201 121.888 149.948 121.116 149.948 120.167V106.404C149.948 105.456 149.201 104.684 148.281 104.684Z" fill="#3F3D56"/>
<path d="M148.281 145.973C147.362 145.973 146.615 146.744 146.615 147.693V174.359C146.615 175.308 147.362 176.079 148.281 176.079C149.201 176.079 149.948 175.308 149.948 174.359V147.693C149.948 146.744 149.201 145.973 148.281 145.973Z" fill="#3F3D56"/>
<path d="M148.281 183.821C147.362 183.821 146.615 184.592 146.615 185.541V212.207C146.615 213.156 147.362 213.927 148.281 213.927C149.201 213.927 149.948 213.156 149.948 212.207V185.541C149.948 184.592 149.201 183.821 148.281 183.821Z" fill="#3F3D56"/>
<path d="M541.398 387.043L533.489 392.635L508.828 363.808L520.501 355.555L541.398 387.043Z" fill="#FFB6B6"/>
<path d="M514.179 406.019C514.217 406.622 515.004 408.095 515.335 408.593C516.35 410.123 518.375 410.514 519.858 409.465L544.35 392.146C545.361 391.43 545.62 390.004 544.927 388.96L544.228 387.908C544.228 387.908 543.34 383.888 538.258 381.753C538.258 381.753 537.184 386.998 529.377 385.492L526.316 383.904L521.382 398.362L516.363 402.934C515.264 403.935 514.085 404.511 514.179 406.019L514.179 406.019L514.179 406.019Z" fill="#2F2E41"/>
<path d="M483.087 401.889L473.5 401.888L468.94 363.719L480.674 365.228L483.087 401.889Z" fill="#FFB6B6"/>
<path d="M450.242 401.664C449.943 402.183 449.786 403.858 449.786 404.461C449.786 406.316 451.242 407.82 453.039 407.82H482.728C483.954 407.82 484.948 406.794 484.948 405.529V404.253C484.948 404.253 486.417 400.418 483.393 395.692C483.393 395.692 479.635 399.393 474.019 393.596L472.363 390.5L460.376 399.549L453.732 400.393C452.278 400.578 450.99 400.364 450.242 401.664H450.242V401.664Z" fill="#2F2E41"/>
<path d="M449.475 256.837L450.196 265.838L448.761 272.995L451.375 280.541L454.573 320.439L471.239 389.226L483.965 391.992L477.856 323.281L482.595 266.606L449.475 256.837Z" fill="#2F2E41"/>
<path d="M503.552 217.763L454.883 218.46L449.475 256.835L482.594 272.884L481.538 327.69L518.423 382.804L538.069 371.219L505.15 324.415L514.368 246.369L503.552 217.763H503.552Z" fill="#2F2E41"/>
<path d="M467.524 127.544L458.938 138.918L462.994 226.135L494.764 225.437L500.172 149.385L493.413 129.848L490.967 125.47L488.041 119.801L469.288 121.183L467.525 127.544H467.524V127.544Z" fill="#E6E6E6"/>
<path d="M454.845 181.48L456.562 199.305L454.453 219.817L451.816 225.378L445.788 247.501C445.788 247.501 439.636 257.176 453.155 257.871C466.675 258.567 510.988 254.04 510.988 254.04C510.988 254.04 516.513 253.9 514.105 241.97C510.215 235.07 512.723 225.348 512.723 225.348L507.608 205.896L508.96 187.756L518.424 140.309C510.019 133.492 500.605 128.612 490.371 125.307L481.407 149.636L468.062 127.401L462.992 131.238C456.154 133.089 450.137 135.935 445.377 140.309L454.845 181.48Z" fill="#2F2E41"/>
<path d="M294.396 139.161H198.997C192.458 139.153 187.159 133.684 187.151 126.934V84.6064C187.159 77.8568 192.458 72.387 198.997 72.3793C229.438 63.674 261.365 64.4897 294.396 72.3793C300.935 72.3873 306.234 77.857 306.241 84.6064V126.934C306.234 133.683 300.935 139.153 294.396 139.161H294.396Z" fill="#F2F2F2"/>
<path d="M304.115 183.522H189.279C188.105 183.521 187.153 182.539 187.152 181.327V151.924C187.154 150.712 188.105 149.731 189.279 149.729H304.115C305.289 149.731 306.24 150.712 306.242 151.924V181.328C306.24 182.539 305.289 183.521 304.115 183.523V183.522ZM189.279 150.607C188.574 150.608 188.003 151.197 188.003 151.924V181.328C188.003 182.055 188.574 182.644 189.279 182.645H304.115C304.82 182.644 305.39 182.055 305.391 181.328V151.924C305.39 151.197 304.82 150.608 304.115 150.607H189.279Z" fill="#E6E6E6"/>
<path d="M224.793 160.477C223.971 160.495 223.318 161.197 223.336 162.046C223.352 162.869 223.995 163.532 224.793 163.55H294.97C295.792 163.582 296.484 162.921 296.515 162.073C296.546 161.224 295.906 160.51 295.084 160.478H224.793V160.477Z" fill="#E6E6E6"/>
<path d="M224.793 169.698C223.971 169.716 223.318 170.419 223.336 171.267C223.352 172.091 223.995 172.754 224.793 172.771H294.97C295.792 172.804 296.484 172.143 296.515 171.294C296.546 170.446 295.906 169.732 295.084 169.7H224.793V169.698Z" fill="#E6E6E6"/>
<path d="M205.079 172.773C208.368 172.773 211.034 170.021 211.034 166.626C211.034 163.231 208.368 160.479 205.079 160.479C201.79 160.479 199.124 163.231 199.124 166.626C199.124 170.021 201.79 172.773 205.079 172.773Z" fill="#E6E6E6"/>
<path d="M304.115 327.844H189.279C188.105 327.843 187.153 326.861 187.152 325.649V296.246C187.154 295.034 188.105 294.053 189.279 294.051H304.115C305.289 294.053 306.24 295.034 306.242 296.246V325.65C306.24 326.861 305.289 327.843 304.115 327.845V327.844ZM189.279 294.929C188.574 294.93 188.003 295.519 188.003 296.246V325.65C188.003 326.377 188.574 326.966 189.279 326.967L291.07 325.931C291.775 325.93 302.456 321.819 302.456 321.092L305.391 296.246C305.39 295.519 304.82 294.93 304.115 294.929H189.279Z" fill="#E6E6E6"/>
<path d="M224.793 309.182C223.97 309.164 223.29 309.837 223.273 310.686C223.255 311.534 223.908 312.237 224.73 312.255C224.751 312.255 224.772 312.255 224.793 312.255H294.97C295.792 312.287 296.483 311.626 296.515 310.778C296.546 309.93 295.906 309.216 295.084 309.183H224.793V309.182V309.182Z" fill="#E6E6E6"/>
<path d="M205.079 317.095C208.368 317.095 211.034 314.343 211.034 310.948C211.034 307.553 208.368 304.801 205.079 304.801C201.79 304.801 199.124 307.553 199.124 310.948C199.124 314.343 201.79 317.095 205.079 317.095Z" fill="#E6E6E6"/>
<path d="M304.115 267.006H189.279C188.105 267.005 187.153 266.022 187.152 264.811V235.408C187.154 234.196 188.105 233.214 189.279 233.213H304.115C305.289 233.214 306.24 234.196 306.242 235.408V264.811C306.24 266.023 305.289 267.005 304.115 267.006V267.006ZM189.279 234.091C188.574 234.092 188.003 234.681 188.003 235.408V264.811C188.003 265.538 188.574 266.128 189.279 266.128L291.07 265.093C291.775 265.092 302.456 260.981 302.456 260.253L305.391 235.408C305.39 234.681 304.82 234.092 304.115 234.091H189.279Z" fill="#E6E6E6"/>
<path d="M224.793 248.344C223.97 248.326 223.29 248.999 223.273 249.848C223.255 250.696 223.908 251.399 224.73 251.417C224.751 251.417 224.772 251.417 224.793 251.417H294.97C295.792 251.449 296.483 250.788 296.515 249.94C296.546 249.091 295.906 248.377 295.084 248.345H224.793V248.344V248.344Z" fill="#E6E6E6"/>
<path d="M205.079 256.257C208.368 256.257 211.034 253.505 211.034 250.11C211.034 246.715 208.368 243.963 205.079 243.963C201.79 243.963 199.124 246.715 199.124 250.11C199.124 253.505 201.79 256.257 205.079 256.257Z" fill="#E6E6E6"/>
<path d="M476.992 118.994C486.258 118.994 493.77 111.241 493.77 101.677C493.77 92.1122 486.258 84.3588 476.992 84.3588C467.727 84.3588 460.215 92.1122 460.215 101.677C460.215 111.241 467.727 118.994 476.992 118.994Z" fill="#FFB6B6"/>
<path d="M489.315 115.905C490.239 116.068 491.324 113.756 492.36 111.504C494.531 106.79 495.91 103.793 496.015 99.5575C496.105 95.9473 495.133 96.8949 494.188 88.8685C493.876 86.2212 489.494 86.2263 488.603 84.9692C487.096 82.8458 489.407 81.9701 485.66 80.6945C478.64 78.3053 475.465 82.0169 471.007 82.3366C470.895 82.3447 468.684 84.5757 467.45 84.691C465.288 84.8931 462.168 84.5454 460.769 81.1445C459.461 77.9645 458.595 87.257 459.764 88.407C460.756 89.3834 462.468 91.8341 462.512 92.0123C462.561 92.214 458.442 87.5032 457.754 89.4445C457.259 90.8417 458.817 98.0298 460.075 98.3C461.128 98.5259 463.702 94.9451 463.121 96.4137C461.774 99.8196 469.873 101.993 479.568 95.1562C479.912 94.9137 479.587 95.3004 480.786 98.3C482.299 102.083 482.64 102.288 482.614 103.33C482.557 105.586 480.916 106.25 481.396 107.731C481.784 108.931 483.302 109.86 484.441 109.618C485.727 109.344 485.947 107.702 486.878 107.731C487.675 107.757 488.621 108.996 488.705 110.247C488.883 112.882 485.104 113.606 484.441 117.163C484.068 119.17 488.465 115.756 489.315 115.905Z" fill="#2F2E41"/>
<path d="M527.283 254.331C527.355 252.392 526.977 250.463 526.179 248.705L527.907 228.495L518.564 227.928L517.817 248.494C516.936 250.208 516.465 252.115 516.444 254.056C516.327 258.911 518.658 262.908 521.65 262.985C524.642 263.063 527.164 259.19 527.281 254.336L527.283 254.331Z" fill="#FFB6B6"/>
<path d="M507.407 172.836L514.774 196.342L516.89 244.349L529.222 244.089L530.179 191.502C530.179 191.502 524.033 152.645 521.975 143.911C519.917 135.178 500.939 138.414 500.939 138.414L507.407 172.836V172.836V172.836Z" fill="#2F2E41"/>
<path d="M201.816 111.553C205.3 112.747 208.953 113.956 212.672 113.752C214.365 113.659 215.993 113.242 217.528 112.501C219.103 111.741 220.542 110.709 222.135 109.989C227.993 107.343 233.802 111.863 239.265 113.56C241.99 114.407 244.856 114.609 247.522 113.43C250.468 112.127 252.69 109.641 255.115 107.566C260.552 102.912 267.647 100.403 274.704 100.593C282.446 100.801 289.939 104.33 295.271 110.104C295.718 110.588 296.427 109.854 295.981 109.37C291.322 104.325 285.044 100.923 278.358 99.8925C271.659 98.8594 264.704 100.24 258.813 103.684C255.832 105.426 253.441 107.812 250.815 110.038C248.257 112.206 245.414 113.603 242.043 113.142C236.234 112.349 231.238 107.729 225.214 108.148C221.367 108.415 218.619 111.403 214.999 112.356C210.68 113.492 206.166 111.952 202.083 110.553C201.468 110.342 201.205 111.343 201.816 111.553L201.816 111.553V111.553Z" fill="#3F3D56"/>
<path d="M212.722 117.078C214.777 117.078 216.443 115.358 216.443 113.237C216.443 111.116 214.777 109.396 212.722 109.396C210.666 109.396 209 111.116 209 113.237C209 115.358 210.666 117.078 212.722 117.078Z" fill="#269E96"/>
<path d="M244.847 117.248C246.902 117.248 248.568 115.529 248.568 113.407C248.568 111.286 246.902 109.566 244.847 109.566C242.791 109.566 241.125 111.286 241.125 113.407C241.125 115.529 242.791 117.248 244.847 117.248Z" fill="#269E96"/>
<path d="M277.471 104.219C279.526 104.219 281.192 102.499 281.192 100.377C281.192 98.256 279.526 96.5363 277.471 96.5363C275.416 96.5363 273.75 98.256 273.75 100.377C273.75 102.499 275.416 104.219 277.471 104.219Z" fill="#269E96"/>
<path d="M61.5427 233.639C50.5404 265.974 64.5584 291.45 61.6494 275.016C59.2182 261.282 100.645 219.491 113.115 228.108C112.854 226.714 104.928 201.57 104.151 201.453C105.238 198.628 103.723 198.601 103.661 197.153C103.426 191.562 104.685 185.757 107.137 179.783C108.745 175.168 108.773 171.202 107.215 168.005C105.875 165.377 103.623 163.368 100.909 162.379L92.7381 152.193C90.6095 149.542 87.4703 143.821 84.1348 143.842L66.2298 143.182C65.7181 142.865 59.4309 148.445 53.3092 151.184C46.6697 154.157 48.0394 162.27 48.0561 162.374L48.0716 162.471L48.1446 162.54L57.9038 192.19L66.7214 200.72C66.2747 202.057 66.3865 203.061 67.2231 203.637C66.0222 204.553 60.68 231.987 61.5427 232.948V233.639L61.5427 233.639Z" fill="#269E96"/>
<path d="M153.546 174.958C152.214 175.507 151.029 176.376 150.09 177.494L135.911 182.511L138.421 189.405L152.534 183.574C153.964 183.677 155.398 183.425 156.714 182.84C160.028 181.42 162.005 178.506 161.129 176.329C160.253 174.153 156.859 173.539 153.546 174.958V174.958Z" fill="#FFB6B6"/>
<path d="M77.9086 152.833L110.255 197.902L148.172 187.124L146.524 176.914L117.651 182.559L101.544 156.999C96.2838 146.504 85.9171 144.391 77.9086 152.833V152.833Z" fill="#269E96"/>
<path d="M310.23 380.092H295.469C292.891 380.092 290.793 377.926 290.793 375.266C287.995 367.418 287.642 360.379 290.793 354.498C290.793 351.838 292.891 349.672 295.469 349.672C299.834 346.404 304.923 347.397 310.23 349.672C312.808 349.672 314.905 351.838 314.905 354.498C313.114 361.152 313.244 368.094 314.905 375.266C314.905 377.926 312.808 380.092 310.23 380.092Z" fill="#269E96"/>
<path d="M308.802 358.915H296.88C296.469 358.915 296.135 358.571 296.135 358.146C296.135 357.721 296.469 357.377 296.88 357.377H308.802C309.214 357.377 309.547 357.721 309.547 358.146C309.547 358.571 309.214 358.915 308.802 358.915Z" fill="white"/>
<path d="M308.802 365.066H296.88C296.469 365.066 296.135 364.722 296.135 364.297C296.135 363.873 296.469 363.528 296.88 363.528H308.802C309.214 363.528 309.547 363.873 309.547 364.297C309.547 364.722 309.214 365.066 308.802 365.066Z" fill="white"/>
<path d="M308.802 371.219H296.88C296.469 371.219 296.135 370.874 296.135 370.45C296.135 370.025 296.469 369.681 296.88 369.681H308.802C309.214 369.681 309.547 370.025 309.547 370.45C309.547 370.874 309.214 371.219 308.802 371.219Z" fill="white"/>
<path d="M570 408.052H0V409.215H570V408.052Z" fill="#E6E6E6"/>
<path d="M444.866 252.718C445.35 257.548 448.157 261.206 451.135 260.888C454.112 260.569 456.133 256.396 455.649 251.566C455.481 249.633 454.867 247.769 453.858 246.131L451.557 225.689L442.285 227.007L445.538 247.016C444.876 248.833 444.645 250.786 444.864 252.714L444.866 252.718Z" fill="#FFB6B6"/>
<path d="M458.509 169.865L462.351 135.027C462.351 135.027 443.187 133.331 441.796 142.204C440.406 151.077 437.22 190.311 437.22 190.311L442.154 242.66L454.469 241.924L452.944 193.893L458.509 169.865V169.865Z" fill="#2F2E41"/>
<path d="M88.3064 139.345L62.4135 141.779L61.6494 114L89.858 113.174L88.3064 139.345Z" fill="#2F2E41"/>
<path d="M75.213 135.617C82.7178 135.617 88.8016 129.337 88.8016 121.59C88.8016 113.844 82.7178 107.564 75.213 107.564C67.7082 107.564 61.6244 113.844 61.6244 121.59C61.6244 129.337 67.7082 135.617 75.213 135.617Z" fill="#FFB6B6"/>
<path d="M86.1441 107.923C86.0484 104.443 81.8529 104.066 78.5841 103.207L75.6199 101.619C72.7104 100.855 69.6234 101.393 67.1181 103.1L59.2141 108.043C55.6651 110.462 55.1013 114.372 53.6581 118.501L51.046 124.546C49.6253 128.611 51.5027 133.998 52.9388 138.057L53.5406 139.758L52.5996 145.325L69.0711 144.531L70.5352 135.937L67.7236 132.674C66.726 131.517 66.645 129.798 67.5292 128.546H67.5292C70.7097 124.043 70.1202 117.732 70.1202 117.732L74.1453 119.998C76.79 120.371 79.1469 120.33 81.2205 119.883C83.5012 119.391 85.4393 118.407 87.0411 116.941L88.4762 121.923C88.8459 128.124 87.7233 129.769 82.3689 135.835L91.7585 141.919L91.4112 138.627C90.5851 130.794 93.1037 124.617 92.7506 118.241C92.5065 113.833 89.9666 109.906 86.1441 107.923H86.1441H86.1441Z" fill="#2F2E41"/>
<path d="M88.3932 226.194C87.0665 225.633 85.6291 225.409 84.2012 225.539L70.6271 218.977L67.7913 225.735L81.8659 231.664C82.8249 232.764 84.0251 233.611 85.3662 234.134C88.7044 235.49 92.0889 234.813 92.924 232.619C93.7591 230.426 91.7314 227.55 88.3932 226.194H88.3932Z" fill="#FFB6B6"/>
<path d="M48.8952 156.032L41.8164 211.643L76.339 231.088L82.0268 222.564L57.4637 205.914L63.0876 175.98C66.3701 164.66 60.3379 155.705 48.8956 156.031L48.8952 156.032Z" fill="#269E96"/>
</svg>
